0
SECTION
2
HEADER
9
$INSUNITS
70
4
9
$ACADVER
1
AC1014
9
$HANDSEED
5
FFFF
0
ENDSEC
0
SECTION
2
TABLES
0
TABLE
2
VPORT
5
8
100
AcDbSymbolTable
0
ENDTAB
0
TABLE
2
LTYPE
5
5
100
AcDbSymbolTable
0
LTYPE
5
14
100
AcDbSymbolTableRecord
100
AcDbLinetypeTableRecord
2
BYBLOCK
70
0
0
LTYPE
5
15
100
AcDbSymbolTableRecord
100
AcDbLinetypeTableRecord
2
BYLAYER
70
0
0
ENDTAB
0
TABLE
2
LAYER
5
2
100
AcDbSymbolTable
70
2
0
LAYER
5
50
100
AcDbSymbolTableRecord
100
AcDbLayerTableRecord
2
0
70
0
6
CONTINUOUS
0
ENDTAB
0
TABLE
2
STYLE
5
3
100
AcDbSymbolTable
70
1
0
STYLE
5
11
100
AcDbSymbolTableRecord
100
AcDbTextStyleTableRecord
2
STANDARD
70
0
0
ENDTAB
0
TABLE
2
VIEW
5
6
100
AcDbSymbolTable
70
0
0
ENDTAB
0
TABLE
2
UCS
5
7
100
AcDbSymbolTable
70
0
0
ENDTAB
0
TABLE
2
APPID
5
9
100
AcDbSymbolTable
70
2
0
APPID
5
12
100
AcDbSymbolTableRecord
100
AcDbRegAppTableRecord
2
ACAD
70
0
0
ENDTAB
0
TABLE
2
DIMSTYLE
5
A
100
AcDbSymbolTable
70
1
0
ENDTAB
0
TABLE
2
BLOCK_RECORD
5
1
100
AcDbSymbolTable
70
1
0
BLOCK_RECORD
5
1F
100
AcDbSymbolTableRecord
100
AcDbBlockTableRecord
2
*MODEL_SPACE
0
BLOCK_RECORD
5
1B
100
AcDbSymbolTableRecord
100
AcDbBlockTableRecord
2
*PAPER_SPACE
0
ENDTAB
0
ENDSEC
0
SECTION
2
BLOCKS
0
BLOCK
5
20
100
AcDbEntity
100
AcDbBlockBegin
2
*MODEL_SPACE
0
ENDBLK
5
21
100
AcDbEntity
100
AcDbBlockEnd
0
BLOCK
5
1C
100
AcDbEntity
100
AcDbBlockBegin
2
*PAPER_SPACE
0
ENDBLK
5
1D
100
AcDbEntity
100
AcDbBlockEnd
0
ENDSEC
0
SECTION
2
ENTITIES
0
CIRCLE
5
100
100
AcDbEntity
8
0
100
AcDbCircle
10
-27.427999999999983
20
-72.499999999999872
30
0
40
1.4999999999999991
210
0
220
-0
230
1
0
CIRCLE
5
101
100
AcDbEntity
8
0
100
AcDbCircle
10
-20.927999999999983
20
-22.499999999999876
30
0
40
1.5000000000000013
210
1.2446030555722283e-60
220
-2.6410963621315201e-120
230
1
0
CIRCLE
5
102
100
AcDbEntity
8
0
100
AcDbCircle
10
-20.927999999999983
20
-122.49999999999987
30
0
40
1.5000000000000013
210
1.2446030555722283e-60
220
-2.6410963621315201e-120
230
1
0
CIRCLE
5
103
100
AcDbEntity
8
0
100
AcDbCircle
10
-20.927999999999983
20
-72.499999999999872
30
0
40
1.5000000000000013
210
1.2446030555722283e-60
220
-2.6410963621315201e-120
230
1
0
CIRCLE
5
104
100
AcDbEntity
8
0
100
AcDbCircle
10
-27.427999999999983
20
-22.499999999999876
30
0
40
1.4999999999999991
210
0
220
-0
230
1
0
CIRCLE
5
105
100
AcDbEntity
8
0
100
AcDbCircle
10
-27.427999999999983
20
-122.49999999999987
30
0
40
1.4999999999999991
210
0
220
-0
230
1
0
CIRCLE
5
106
100
AcDbEntity
8
0
100
AcDbCircle
10
50.072000000000003
20
-22.500000000000007
30
0
40
1.6000000000000014
210
-1.2446030555722283e-60
220
-9.1598059059524578e-91
230
1
0
CIRCLE
5
107
100
AcDbEntity
8
0
100
AcDbCircle
10
0.57200000000000772
20
-22.500000000000007
30
0
40
1.6000000000000001
210
9.5510746408070245e-45
220
-2.4689775985998259e-76
230
1
0
CIRCLE
5
108
100
AcDbEntity
8
0
100
AcDbCircle
10
50.072000000000003
20
-2.5000000000000142
30
0
40
1.6000000000000014
210
-1.2446030555722283e-60
220
-9.2077462718245048e-91
230
1
0
CIRCLE
5
109
100
AcDbEntity
8
0
100
AcDbCircle
10
0.57200000000001661
20
-2.5000000000000142
30
0
40
1.6000000000000003
210
9.5510390039442229e-45
220
-2.484297246392995e-76
230
1
0
CIRCLE
5
110
100
AcDbEntity
8
0
100
AcDbCircle
10
-87.927999999999997
20
-143.49999999999932
30
0
40
2.5999999999999979
210
0
220
-0
230
1
0
CIRCLE
5
111
100
AcDbEntity
8
0
100
AcDbCircle
10
-87.927999999999983
20
86.500000000000682
30
0
40
2.5999999999999979
210
0
220
-0
230
1
0
CIRCLE
5
112
100
AcDbEntity
8
0
100
AcDbCircle
10
20.57200000000001
20
-12.5
30
0
40
10
210
0
220
-0
230
1
0
CIRCLE
5
113
100
AcDbEntity
8
0
100
AcDbCircle
10
132.07200000000046
20
86.500000000000682
30
0
40
2.5999999999999979
210
0
220
-0
230
1
0
CIRCLE
5
114
100
AcDbEntity
8
0
100
AcDbCircle
10
132.07200000000046
20
-143.49999999999932
30
0
40
2.5999999999999979
210
0
220
-0
230
1
0
LWPOLYLINE
5
115
100
AcDbEntity
8
0
100
AcDbPolyline
90
8
70
1
43
0.0
10
-97.927999999999997
20
-84.5
42
-0.41421356237309503
10
-99.927999999999997
20
-86.499999999999986
10
-115.928
20
-86.499999999999986
42
-0.41421356237309503
10
-117.928
20
-84.5
10
-117.928
20
27.5
42
-0.41421356237309503
10
-115.928
20
29.5
10
-99.927999999999997
20
29.499999999999993
42
-0.41421356237309437
10
-97.927999999999997
20
27.5
0
LWPOLYLINE
5
116
100
AcDbEntity
8
0
100
AcDbPolyline
90
10
70
1
43
0.0
10
165.07200000000006
20
29.499999999999989
10
144.072
20
29.499999999999993
42
0.4142135623730937
10
142.072
20
27.5
10
142.072
20
-84.500000000000028
42
0.41421356237309503
10
144.072
20
-86.500000000000028
10
165.07200000000006
20
-86.500000000000028
10
165.07200000000006
20
-153.50000000000003
10
-150.928
20
-153.50000000000003
10
-150.928
20
96.5
10
165.07200000000006
20
96.499999999999986
0
ENDSEC
0
SECTION
2
OBJECTS
0
DICTIONARY
5
C
100
AcDbDictionary
3
ACAD_GROUP
350
D
3
ACAD_MLINESTYLE
350
17
0
DICTIONARY
5
D
100
AcDbDictionary
0
DICTIONARY
5
1A
330
C
100
AcDbDictionary
0
DICTIONARY
5
17
100
AcDbDictionary
0
ENDSEC
0
EOF
