0
SECTION
2
HEADER
9
$INSUNITS
70
4
9
$ACADVER
1
AC1014
9
$HANDSEED
5
FFFF
0
ENDSEC
0
SECTION
2
TABLES
0
TABLE
2
VPORT
5
8
100
AcDbSymbolTable
0
ENDTAB
0
TABLE
2
LTYPE
5
5
100
AcDbSymbolTable
0
LTYPE
5
14
100
AcDbSymbolTableRecord
100
AcDbLinetypeTableRecord
2
BYBLOCK
70
0
0
LTYPE
5
15
100
AcDbSymbolTableRecord
100
AcDbLinetypeTableRecord
2
BYLAYER
70
0
0
ENDTAB
0
TABLE
2
LAYER
5
2
100
AcDbSymbolTable
70
2
0
LAYER
5
50
100
AcDbSymbolTableRecord
100
AcDbLayerTableRecord
2
0
70
0
6
CONTINUOUS
0
ENDTAB
0
TABLE
2
STYLE
5
3
100
AcDbSymbolTable
70
1
0
STYLE
5
11
100
AcDbSymbolTableRecord
100
AcDbTextStyleTableRecord
2
STANDARD
70
0
0
ENDTAB
0
TABLE
2
VIEW
5
6
100
AcDbSymbolTable
70
0
0
ENDTAB
0
TABLE
2
UCS
5
7
100
AcDbSymbolTable
70
0
0
ENDTAB
0
TABLE
2
APPID
5
9
100
AcDbSymbolTable
70
2
0
APPID
5
12
100
AcDbSymbolTableRecord
100
AcDbRegAppTableRecord
2
ACAD
70
0
0
ENDTAB
0
TABLE
2
DIMSTYLE
5
A
100
AcDbSymbolTable
70
1
0
ENDTAB
0
TABLE
2
BLOCK_RECORD
5
1
100
AcDbSymbolTable
70
1
0
BLOCK_RECORD
5
1F
100
AcDbSymbolTableRecord
100
AcDbBlockTableRecord
2
*MODEL_SPACE
0
BLOCK_RECORD
5
1B
100
AcDbSymbolTableRecord
100
AcDbBlockTableRecord
2
*PAPER_SPACE
0
ENDTAB
0
ENDSEC
0
SECTION
2
BLOCKS
0
BLOCK
5
20
100
AcDbEntity
100
AcDbBlockBegin
2
*MODEL_SPACE
0
ENDBLK
5
21
100
AcDbEntity
100
AcDbBlockEnd
0
BLOCK
5
1C
100
AcDbEntity
100
AcDbBlockBegin
2
*PAPER_SPACE
0
ENDBLK
5
1D
100
AcDbEntity
100
AcDbBlockEnd
0
ENDSEC
0
SECTION
2
ENTITIES
0
CIRCLE
5
100
100
AcDbEntity
8
0
100
AcDbCircle
10
59.999999999999574
20
-291.0000000000033
30
0
40
1.5999999999999837
210
2.4651903288156619e-32
220
-5.4738221262688161e-48
230
1
0
CIRCLE
5
101
100
AcDbEntity
8
0
100
AcDbCircle
10
279.99999999999977
20
-291.00000000000023
30
0
40
1.6000000000000014
210
2.4651903288156619e-32
220
-5.4738221262688161e-48
230
1
0
CIRCLE
5
102
100
AcDbEntity
8
0
100
AcDbCircle
10
280.00000000000006
20
-99.00000000000361
30
0
40
1.5999999999999837
210
2.4651903288156619e-32
220
-5.4738221262688161e-48
230
1
0
CIRCLE
5
103
100
AcDbEntity
8
0
100
AcDbCircle
10
60.000000000000107
20
-99.000000000003496
30
0
40
1.5999999999999925
210
2.4651903288156619e-32
220
-5.4738221262688161e-48
230
1
0
LWPOLYLINE
5
104
100
AcDbEntity
8
0
100
AcDbPolyline
90
10
70
1
43
0.0
10
119.99999999999993
20
-280.00000000000352
10
119.99999999999993
20
-295.00000000000352
10
44.999999999999929
20
-294.99999999999994
10
45.000000000000107
20
-95.000000000003524
10
295
20
-95.000000000003553
10
294.99999999999994
20
-295
10
220
20
-295.00000000000352
10
219.99999999999994
20
-280.00000000000352
42
0.41421356237309503
10
215.99999999999994
20
-276.00000000000347
10
123.99999999999991
20
-276.00000000000352
42
0.41421356237309503
0
CIRCLE
5
105
100
AcDbEntity
8
0
100
AcDbCircle
10
-247.00000000001342
20
-101.99999999999775
30
0
40
1.6000000000000014
210
2.4651903288156624e-32
220
-1.6948183510607632e-32
230
1
0
CIRCLE
5
106
100
AcDbEntity
8
0
100
AcDbCircle
10
-247.00000000001327
20
-227.99999999999784
30
0
40
1.6000000000000014
210
2.4651903288156624e-32
220
-1.6948183510607632e-32
230
1
0
CIRCLE
5
107
100
AcDbEntity
8
0
100
AcDbCircle
10
-247.00000000001322
20
-237.99999999999784
30
0
40
1.6000000000000014
210
2.4651903288156624e-32
220
-1.6948183510607632e-32
230
1
0
CIRCLE
5
108
100
AcDbEntity
8
0
100
AcDbCircle
10
-19.000000000007766
20
-238.00000000000369
30
0
40
1.6000000000000014
210
2.4651903288156624e-32
220
-1.6948183510607632e-32
230
1
0
CIRCLE
5
109
100
AcDbEntity
8
0
100
AcDbCircle
10
-19.00000000000805
20
-112.00000000000372
30
0
40
1.6000000000000014
210
2.4651903288156624e-32
220
-1.6948183510607632e-32
230
1
0
CIRCLE
5
110
100
AcDbEntity
8
0
100
AcDbCircle
10
-19.00000000000805
20
-102.00000000000365
30
0
40
1.6000000000000014
210
2.4651903288156624e-32
220
-1.6948183510607632e-32
230
1
0
CIRCLE
5
111
100
AcDbEntity
8
0
100
AcDbCircle
10
-19.000000000007766
20
-228.00000000000369
30
0
40
1.6000000000000014
210
2.4651903288156624e-32
220
-1.6948183510607632e-32
230
1
0
CIRCLE
5
112
100
AcDbEntity
8
0
100
AcDbCircle
10
-247.00000000001342
20
-111.99999999999781
30
0
40
1.6000000000000014
210
2.4651903288156624e-32
220
-1.6948183510607632e-32
230
1
0
LWPOLYLINE
5
113
100
AcDbEntity
8
0
100
AcDbPolyline
90
8
70
1
43
0.0
10
-12.999999999999936
20
-114.00000000000006
10
-12.999999999999865
20
-226
42
0.41421356237309503
10
-10.999999999999837
20
-228
10
5.0000000000001084
20
-228
42
0.41421356237309492
10
7.0000000000001359
20
-226
10
7.0000000000001084
20
-113.99999999999999
42
0.4142135623730952
10
5.0000000000001066
20
-112.00000000000003
10
-10.999999999999979
20
-112.00000000000006
42
0.41421356237309503
0
LWPOLYLINE
5
114
100
AcDbEntity
8
0
100
AcDbPolyline
90
10
70
1
43
0.0
10
-252.99999999999994
20
-226.00000000000017
10
-252.99999999999994
20
-114.00000000000013
42
0.41421356237309503
10
-254.99999999999994
20
-112.0000000000001
10
-275.99999999999994
20
-112.00000000000009
10
-276
20
-45.000000000000128
10
39.999999999999929
20
-45
10
40.000000000000107
20
-295
10
-275.99999999999989
20
-295.00000000000011
10
-275.99999999999989
20
-228.00000000000011
10
-254.99999999999989
20
-228.00000000000014
42
0.41421356237309503
0
CIRCLE
5
115
100
AcDbEntity
8
0
100
AcDbCircle
10
80.000000000000057
20
94.999999999996447
30
0
40
2.6000000000000068
210
0
220
-0
230
1
0
CIRCLE
5
116
100
AcDbEntity
8
0
100
AcDbCircle
10
260.00000000000023
20
94.999999999996518
30
0
40
2.5999999999999979
210
0
220
-0
230
1
0
CIRCLE
5
117
100
AcDbEntity
8
0
100
AcDbCircle
10
260.00000000000023
20
-85.000000000003482
30
0
40
2.5999999999999979
210
0
220
-0
230
1
0
CIRCLE
5
118
100
AcDbEntity
8
0
100
AcDbCircle
10
80.000000000000156
20
-85.000000000003524
30
0
40
2.6000000000000068
210
0
220
-0
230
1
0
LWPOLYLINE
5
119
100
AcDbEntity
8
0
100
AcDbPolyline
90
10
70
1
43
0.0
10
220.00000000000006
20
89.999999999996518
10
220.00000000000023
20
104.99999999999652
10
295.00000000000023
20
104.99999999999652
10
295.00000000000023
20
-95.000000000003439
10
45.000000000000156
20
-95.000000000003524
10
45.000000000000071
20
104.99999999999645
10
120.00000000000014
20
104.99999999999645
10
120.00000000000013
20
89.999999999996518
42
0.41421356237309503
10
124.00000000000013
20
85.999999999996461
10
216.00000000000017
20
85.999999999996518
42
0.41421356237309503
0
CIRCLE
5
120
100
AcDbEntity
8
0
100
AcDbCircle
10
-126.73870822956658
20
39.039825254076455
30
0
40
1.6000000000000014
210
2.4651903288156619e-32
220
1.1325977418806877e-32
230
1
0
CIRCLE
5
121
100
AcDbEntity
8
0
100
AcDbCircle
10
-126.73870822956661
20
127.03982525407636
30
0
40
1.6000000000000014
210
2.4651903288156619e-32
220
1.1325977418806877e-32
230
1
0
CIRCLE
5
122
100
AcDbEntity
8
0
100
AcDbCircle
10
-214.73870822956656
20
39.039825254076419
30
0
40
1.6000000000000014
210
2.4651903288156619e-32
220
1.1325977418806877e-32
230
1
0
CIRCLE
5
123
100
AcDbEntity
8
0
100
AcDbCircle
10
-214.73870822956658
20
127.03982525407632
30
0
40
1.6000000000000014
210
2.4651903288156619e-32
220
1.1325977418806877e-32
230
1
0
CIRCLE
5
124
100
AcDbEntity
8
0
100
AcDbCircle
10
-263
20
142.99999999999969
30
0
40
2.5999999999999979
210
2.4756094032122682e-48
220
2.0214884854440354e-32
230
1
0
LWPOLYLINE
5
125
100
AcDbEntity
8
0
100
AcDbPolyline
90
6
70
1
43
0.0
10
-156.04176977286753
20
86.039825254076376
10
-135.08762128961482
20
86.039825254076447
42
0.45563960704566409
10
-133.10700534850639
20
88.317603031854176
42
0.33475489223534227
10
-165.4609304517889
20
120.67152813513658
42
0.45563960704567741
10
-167.73870822956656
20
118.69091219402816
10
-167.73870822956661
20
97.736763710775492
42
-0.30061413009175297
0
CIRCLE
5
126
100
AcDbEntity
8
0
100
AcDbCircle
10
-134.98870822956636
20
118.78982525407605
30
0
40
1.6000000000000014
210
2.4651903288156619e-32
220
1.1325977418806877e-32
230
1
0
LWPOLYLINE
5
127
100
AcDbEntity
8
0
100
AcDbPolyline
90
6
70
1
43
0.0
10
-167.73870822956656
20
68.342886797377318
10
-167.73870822956653
20
47.388738314124623
42
0.45563960704567208
10
-165.46093045178881
20
45.408122373016191
42
0.33475489223534222
10
-133.10700534850639
20
77.762047476298704
42
0.45563960704567602
10
-135.08762128961482
20
80.039825254076433
10
-156.04176977286753
20
80.039825254076391
42
-0.30061413009175175
0
CIRCLE
5
128
100
AcDbEntity
8
0
100
AcDbCircle
10
-206.48870822956627
20
118.78982525407665
30
0
40
1.6000000000000014
210
2.4651903288156619e-32
220
1.1325977418806877e-32
230
1
0
CIRCLE
5
129
100
AcDbEntity
8
0
100
AcDbCircle
10
-130.28967279395528
20
148.00000000000068
30
0
40
2.6000000000000001
210
2.4756094032122628e-48
220
2.0214884854440304e-32
230
1
0
LWPOLYLINE
5
130
100
AcDbEntity
8
0
100
AcDbPolyline
90
6
70
1
43
0.0
10
-185.4356466862657
20
80.039825254076334
10
-206.38979516951838
20
80.039825254076362
42
0.45563960704568007
10
-208.37041111062683
20
77.762047476298605
42
0.33475489223534177
10
-176.01648600734435
20
45.408122373016191
42
0.45563960704567741
10
-173.73870822956656
20
47.388738314124623
10
-173.73870822956661
20
68.342886797377304
42
-0.30061413009175109
0
CIRCLE
5
131
100
AcDbEntity
8
0
100
AcDbCircle
10
-206.4887082295669
20
47.289825254076696
30
0
40
1.6000000000000014
210
2.4651903288156619e-32
220
1.1325977418806877e-32
230
1
0
LWPOLYLINE
5
132
100
AcDbEntity
8
0
100
AcDbPolyline
90
6
70
1
43
0.0
10
-173.73870822956658
20
97.736763710775449
10
-173.73870822956664
20
118.69091219402816
42
0.45563960704566603
10
-176.01648600734438
20
120.67152813513661
42
0.33475489223534166
10
-208.37041111062683
20
88.31760303185419
42
0.45563960704567741
10
-206.38979516951838
20
86.039825254076376
10
-185.43564668626567
20
86.039825254076391
42
-0.30061413009175292
0
CIRCLE
5
133
100
AcDbEntity
8
0
100
AcDbCircle
10
-263.00000000000006
20
-27.000000000000171
30
0
40
2.5999999999999979
210
2.4756094032122682e-48
220
2.0214884854440354e-32
230
1
0
CIRCLE
5
134
100
AcDbEntity
8
0
100
AcDbCircle
10
-134.9887082295669
20
47.289825254076199
30
0
40
1.6000000000000014
210
2.4651903288156619e-32
220
1.1325977418806877e-32
230
1
0
CIRCLE
5
135
100
AcDbEntity
8
0
100
AcDbCircle
10
-3.0000000000000067
20
41.811921361836113
30
0
40
2.5999999999999979
210
2.4756094032122682e-48
220
2.0214884854440354e-32
230
1
0
CIRCLE
5
136
100
AcDbEntity
8
0
100
AcDbCircle
10
-2.9999999999999889
20
-27.000000000000171
30
0
40
2.5999999999999979
210
2.4756094032122682e-48
220
2.0214884854440354e-32
230
1
0
LWPOLYLINE
5
137
100
AcDbEntity
8
0
100
AcDbPolyline
90
13
70
1
43
0.0
10
-276
20
7.9999998360871416
10
-236.99999999999974
20
7.9999998360871416
42
0.41421356237308254
10
-226.99999999999974
20
17.999999836086715
10
-226.9999999999979
20
64.999999836086715
42
0.41421356237310725
10
-236.99999999999793
20
74.999999836087099
10
-275.99999999999994
20
74.999999836087142
10
-276
20
157.99999999999983
10
-115.28967279395528
20
157.99999999999983
10
-115.28967279395528
20
58.811921361836106
42
0.41421356237309503
10
-113.28967279395528
20
56.811921361836077
10
39.999999999999964
20
56.811921361836077
10
39.999999999999964
20
-45.000000000000142
10
-276
20
-45.000000000000142
0
CIRCLE
5
138
100
AcDbEntity
8
0
100
AcDbCircle
10
145.49999999999989
20
116.99999999999633
30
0
40
1.6000000000000014
210
-2.4651903288156616e-32
220
-1.132597741880691e-32
230
1
0
CIRCLE
5
139
100
AcDbEntity
8
0
100
AcDbCircle
10
155.50000000000017
20
265.00000000001023
30
0
40
1.6000000000000014
210
2.4651903288156619e-32
220
-1.1325977418806904e-32
230
1
0
CIRCLE
5
140
100
AcDbEntity
8
0
100
AcDbCircle
10
155.49999999999989
20
116.99999999999633
30
0
40
1.6000000000000014
210
-2.4651903288156616e-32
220
-1.132597741880691e-32
230
1
0
CIRCLE
5
141
100
AcDbEntity
8
0
100
AcDbCircle
10
-0.49999999999997091
20
116.99999999999622
30
0
40
1.6000000000000014
210
-2.4651903288156616e-32
220
-1.132597741880691e-32
230
1
0
CIRCLE
5
142
100
AcDbEntity
8
0
100
AcDbCircle
10
-10.499999999999901
20
116.99999999999622
30
0
40
1.6000000000000014
210
-2.4651903288156616e-32
220
-1.132597741880691e-32
230
1
0
CIRCLE
5
143
100
AcDbEntity
8
0
100
AcDbCircle
10
-0.4999999999998288
20
265.00000000000006
30
0
40
1.6000000000000014
210
-2.4651903288156616e-32
220
-1.132597741880691e-32
230
1
0
CIRCLE
5
144
100
AcDbEntity
8
0
100
AcDbCircle
10
-10.499999999999829
20
264.99999999999937
30
0
40
1.6000000000000014
210
-2.4651903288156616e-32
220
-1.132597741880691e-32
230
1
0
CIRCLE
5
145
100
AcDbEntity
8
0
100
AcDbCircle
10
145.50000000000017
20
265.00000000000949
30
0
40
1.6000000000000014
210
2.4651903288156619e-32
220
-1.1325977418806904e-32
230
1
0
LWPOLYLINE
5
146
100
AcDbEntity
8
0
100
AcDbPolyline
90
10
70
1
43
0.0
10
124.00000000000013
20
90.999999999996405
10
124.00000000000013
20
105.9999999999964
42
0.4142135623730937
10
120.00000000000014
20
109.99999999999645
10
28.000000000000114
20
109.99999999999631
42
0.41421356237309503
10
24.000000000000057
20
105.99999999999631
10
24.000000000000057
20
90.999999999996305
10
-100.4999999999999
20
90.999999999999972
10
-100.4999999999999
20
293.99999999999648
10
215.50000000000006
20
293.99999999999648
10
215.50000000000006
20
91.000000000000014
0
LWPOLYLINE
5
147
100
AcDbEntity
8
0
100
AcDbPolyline
90
8
70
1
43
0.0
10
-215.2896727939553
20
257.99999999999983
42
-0.41421356237309503
10
-210.2896727939553
20
262.99999999999983
10
-120.2896727939553
20
262.99999999999983
42
-0.41421356237309398
10
-115.2896727939553
20
257.99999999999983
10
-115.28967279395532
20
167.99999999999983
42
-0.41421356237309398
10
-120.2896727939553
20
162.99999999999983
10
-210.2896727939553
20
162.99999999999983
42
-0.41421356237309503
10
-215.2896727939553
20
167.99999999999983
0
CIRCLE
5
148
100
AcDbEntity
8
0
100
AcDbCircle
10
-121.28967279395532
20
256.99999999999983
30
0
40
1.6000000000000014
210
2.4651903288156619e-32
220
1.0947644252537629e-47
230
1
0
CIRCLE
5
149
100
AcDbEntity
8
0
100
AcDbCircle
10
-121.28967279395532
20
168.99999999999991
30
0
40
1.6000000000000014
210
2.4651903288156619e-32
220
1.0947644252537629e-47
230
1
0
CIRCLE
5
150
100
AcDbEntity
8
0
100
AcDbCircle
10
-201.03967279395562
20
248.74999999999949
30
0
40
3.9999999999999991
210
-2.4651903288156619e-32
220
1.0947644252537624e-47
230
1
0
CIRCLE
5
151
100
AcDbEntity
8
0
100
AcDbCircle
10
-129.53967279395562
20
248.75000000000006
30
0
40
4.0000000000000036
210
-2.4651903288156619e-32
220
1.0947644252537624e-47
230
1
0
CIRCLE
5
152
100
AcDbEntity
8
0
100
AcDbCircle
10
-201.03967279395499
20
177.2499999999996
30
0
40
3.9999999999999991
210
-2.4651903288156619e-32
220
1.0947644252537624e-47
230
1
0
CIRCLE
5
153
100
AcDbEntity
8
0
100
AcDbCircle
10
-129.53967279395505
20
177.25000000000023
30
0
40
4.0000000000000036
210
-2.4651903288156619e-32
220
1.0947644252537624e-47
230
1
0
LWPOLYLINE
5
154
100
AcDbEntity
8
0
100
AcDbPolyline
90
4
70
1
43
0.0
10
-168.28967279395533
20
175.11860615024824
42
-0.3686412755124916
10
-203.17106664370692
20
209.99999999999977
10
-179.98661125065439
20
209.99999999999986
42
0.30061413009175614
10
-168.2896727939553
20
198.30306154330074
0
LWPOLYLINE
5
155
100
AcDbEntity
8
0
100
AcDbPolyline
90
4
70
1
43
0.0
10
-162.2896727939553
20
250.88139384975148
42
-0.36864127551248926
10
-127.40827894420366
20
215.99999999999983
10
-150.59273433725627
20
215.99999999999989
42
0.30061413009174848
10
-162.2896727939553
20
227.69693845669892
0
LWPOLYLINE
5
156
100
AcDbEntity
8
0
100
AcDbPolyline
90
4
70
1
43
0.0
10
-127.40827894420384
20
209.99999999999986
42
-0.36864127551249071
10
-162.2896727939553
20
175.11860615024818
10
-162.28967279395533
20
198.30306154330083
42
0.30061413009175275
10
-150.59273433725625
20
209.99999999999983
0
CIRCLE
5
157
100
AcDbEntity
8
0
100
AcDbCircle
10
-209.28967279395528
20
168.99999999999991
30
0
40
1.6000000000000014
210
2.4651903288156619e-32
220
1.0947644252537629e-47
230
1
0
LWPOLYLINE
5
158
100
AcDbEntity
8
0
100
AcDbPolyline
90
4
70
1
43
0.0
10
-203.17106664370715
20
215.99999999999983
42
-0.36864127551249071
10
-168.2896727939553
20
250.88139384975148
10
-168.28967279395533
20
227.69693845669892
42
0.30061413009175175
10
-179.98661125065439
20
215.99999999999983
0
CIRCLE
5
159
100
AcDbEntity
8
0
100
AcDbCircle
10
-209.28967279395528
20
256.99999999999989
30
0
40
1.6000000000000014
210
2.4651903288156619e-32
220
1.0947644252537629e-47
230
1
0
ENDSEC
0
SECTION
2
OBJECTS
0
DICTIONARY
5
C
100
AcDbDictionary
3
ACAD_GROUP
350
D
3
ACAD_MLINESTYLE
350
17
0
DICTIONARY
5
D
100
AcDbDictionary
0
DICTIONARY
5
1A
330
C
100
AcDbDictionary
0
DICTIONARY
5
17
100
AcDbDictionary
0
ENDSEC
0
EOF
