0
SECTION
2
HEADER
9
$INSUNITS
70
4
9
$ACADVER
1
AC1014
9
$HANDSEED
5
FFFF
0
ENDSEC
0
SECTION
2
TABLES
0
TABLE
2
VPORT
5
8
100
AcDbSymbolTable
0
ENDTAB
0
TABLE
2
LTYPE
5
5
100
AcDbSymbolTable
0
LTYPE
5
14
100
AcDbSymbolTableRecord
100
AcDbLinetypeTableRecord
2
BYBLOCK
70
0
0
LTYPE
5
15
100
AcDbSymbolTableRecord
100
AcDbLinetypeTableRecord
2
BYLAYER
70
0
0
ENDTAB
0
TABLE
2
LAYER
5
2
100
AcDbSymbolTable
70
2
0
LAYER
5
50
100
AcDbSymbolTableRecord
100
AcDbLayerTableRecord
2
0
70
0
6
CONTINUOUS
0
ENDTAB
0
TABLE
2
STYLE
5
3
100
AcDbSymbolTable
70
1
0
STYLE
5
11
100
AcDbSymbolTableRecord
100
AcDbTextStyleTableRecord
2
STANDARD
70
0
0
ENDTAB
0
TABLE
2
VIEW
5
6
100
AcDbSymbolTable
70
0
0
ENDTAB
0
TABLE
2
UCS
5
7
100
AcDbSymbolTable
70
0
0
ENDTAB
0
TABLE
2
APPID
5
9
100
AcDbSymbolTable
70
2
0
APPID
5
12
100
AcDbSymbolTableRecord
100
AcDbRegAppTableRecord
2
ACAD
70
0
0
ENDTAB
0
TABLE
2
DIMSTYLE
5
A
100
AcDbSymbolTable
70
1
0
ENDTAB
0
TABLE
2
BLOCK_RECORD
5
1
100
AcDbSymbolTable
70
1
0
BLOCK_RECORD
5
1F
100
AcDbSymbolTableRecord
100
AcDbBlockTableRecord
2
*MODEL_SPACE
0
BLOCK_RECORD
5
1B
100
AcDbSymbolTableRecord
100
AcDbBlockTableRecord
2
*PAPER_SPACE
0
ENDTAB
0
ENDSEC
0
SECTION
2
BLOCKS
0
BLOCK
5
20
100
AcDbEntity
100
AcDbBlockBegin
2
*MODEL_SPACE
0
ENDBLK
5
21
100
AcDbEntity
100
AcDbBlockEnd
0
BLOCK
5
1C
100
AcDbEntity
100
AcDbBlockBegin
2
*PAPER_SPACE
0
ENDBLK
5
1D
100
AcDbEntity
100
AcDbBlockEnd
0
ENDSEC
0
SECTION
2
ENTITIES
0
LWPOLYLINE
5
100
100
AcDbEntity
8
0
100
AcDbPolyline
90
8
70
1
43
0.0
10
-73.110327206040736
20
161.38807863816368
42
-0.41421356237309503
10
-68.110327206040736
20
166.38807863816368
10
21.889672793959257
20
166.38807863816368
42
-0.41421356237309453
10
26.889672793959257
20
161.38807863816368
10
26.889672793959267
20
71.388078638163677
42
-0.41421356237309553
10
21.889672793959257
20
66.388078638163677
10
-68.110327206040736
20
66.388078638163691
42
-0.41421356237309553
10
-73.110327206040736
20
71.388078638163677
0
LWPOLYLINE
5
101
100
AcDbEntity
8
0
100
AcDbPolyline
90
4
70
1
43
0.0
10
-60.991721055792411
20
119.38807863816368
42
-0.36864127551249043
10
-26.110327206040786
20
154.26947248791532
10
-26.110327206040751
20
131.08501709486276
42
0.30061413009175236
10
-37.807265662739852
20
119.38807863816368
0
LWPOLYLINE
5
102
100
AcDbEntity
8
0
100
AcDbPolyline
90
4
70
1
43
0.0
10
-26.110327206040793
20
78.506684788412002
42
-0.3686412755124906
10
-60.991721055792411
20
113.38807863816368
10
-37.80726566273983
20
113.38807863816371
42
0.30061413009175275
10
-26.110327206040786
20
101.6911401814646
0
LWPOLYLINE
5
103
100
AcDbEntity
8
0
100
AcDbPolyline
90
4
70
1
43
0.0
10
-20.1103272060408
20
154.26947248791527
42
-0.36864127551249093
10
14.771066643710844
20
119.38807863816368
10
-8.4133887493416921
20
119.38807863816372
42
0.30061413009175186
10
-20.110327206040772
20
131.08501709486274
0
LWPOLYLINE
5
104
100
AcDbEntity
8
0
100
AcDbPolyline
90
4
70
1
43
0.0
10
14.771066643710862
20
113.38807863816368
42
-0.3686412755124911
10
-20.110327206040775
20
78.506684788412045
10
-20.110327206040772
20
101.69114018146466
42
0.30061413009175275
10
-8.4133887493417134
20
113.38807863816368
0
CIRCLE
5
105
100
AcDbEntity
8
0
100
AcDbCircle
10
-67.110327206040765
20
72.388078638163762
30
0
40
1.6000000000000014
210
0
220
-2.4651903288156619e-32
230
1
0
CIRCLE
5
106
100
AcDbEntity
8
0
100
AcDbCircle
10
-67.110327206040765
20
160.38807863816373
30
0
40
1.6000000000000014
210
0
220
-2.4651903288156619e-32
230
1
0
CIRCLE
5
107
100
AcDbEntity
8
0
100
AcDbCircle
10
20.889672793959278
20
160.38807863816368
30
0
40
1.6000000000000014
210
0
220
-2.4651903288156619e-32
230
1
0
CIRCLE
5
108
100
AcDbEntity
8
0
100
AcDbCircle
10
20.889672793959242
20
72.388078638163762
30
0
40
1.6000000000000014
210
0
220
-2.4651903288156619e-32
230
1
0
CIRCLE
5
109
100
AcDbEntity
8
0
100
AcDbCircle
10
-58.860327206041021
20
152.13807863816334
30
0
40
3.9999999999999991
210
-0
220
2.4651903288156619e-32
230
1
0
CIRCLE
5
110
100
AcDbEntity
8
0
100
AcDbCircle
10
12.639672793958932
20
152.1380786381639
30
0
40
4.0000000000000036
210
-0
220
2.4651903288156619e-32
230
1
0
CIRCLE
5
111
100
AcDbEntity
8
0
100
AcDbCircle
10
-58.860327206040452
20
80.638078638163435
30
0
40
3.9999999999999991
210
-0
220
2.4651903288156619e-32
230
1
0
CIRCLE
5
112
100
AcDbEntity
8
0
100
AcDbCircle
10
12.639672793959535
20
80.638078638164075
30
0
40
4.0000000000000036
210
-0
220
2.4651903288156619e-32
230
1
0
ENDSEC
0
SECTION
2
OBJECTS
0
DICTIONARY
5
C
100
AcDbDictionary
3
ACAD_GROUP
350
D
3
ACAD_MLINESTYLE
350
17
0
DICTIONARY
5
D
100
AcDbDictionary
0
DICTIONARY
5
1A
330
C
100
AcDbDictionary
0
DICTIONARY
5
17
100
AcDbDictionary
0
ENDSEC
0
EOF
