<?xml version="1.0" encoding="UTF-8"?>
<svg xmlns="http://www.w3.org/2000/svg" width="280.000mm" height="250.000mm" viewBox="511.294678 228.913910 280.000000 250.000000">
    <g>
        <circle transform="matrix(1.000000 0.000000 0.000000 -1.000000 543.794678 468.913910)" style="stroke:#000000;stroke-width:0.05mm;fill:none" r="2.600000"/>
        <circle transform="matrix(1.000000 0.000000 0.000000 -1.000000 758.794678 468.913910)" style="stroke:#000000;stroke-width:0.05mm;fill:none" r="2.600000"/>
        <circle transform="matrix(1.000000 0.000000 0.000000 -1.000000 543.794678 238.913910)" style="stroke:#000000;stroke-width:0.05mm;fill:none" r="2.600000"/>
        <circle transform="matrix(1.000000 0.000000 0.000000 -1.000000 758.794678 238.913910)" style="stroke:#000000;stroke-width:0.05mm;fill:none" r="2.600000"/>
        <path transform="matrix(1.000000 0.000000 0.000000 -1.000000 669.681885 382.413910)" style="stroke:#000000;stroke-width:0.05mm;fill:none" d="M-84.387192,-55.000000L50.612804,-55.000000L50.612804,80.000000L-84.387192,80.000000L-84.387192,-55.000000z"/>
        <path transform="matrix(1.000000 0.000000 0.000000 -1.000000 669.681885 382.413910)" style="stroke:#000000;stroke-width:0.05mm;fill:none" d="M121.612808,-96.500000L-158.387192,-96.500000L-158.387192,153.500000L121.612808,153.500000L121.612808,-96.500000z"/>
        <path transform="matrix(1.000000 0.000000 0.000000 -1.000000 669.681885 382.413910)" style="stroke:#ff0000;stroke-width:0.05mm;fill:#ff0000" d="M-16.887196,-55.000000L-16.887196,-70.000000"/>
        <path transform="matrix(1.000000 0.000000 0.000000 -1.000000 669.681885 382.413910)" style="stroke:#ff0000;stroke-width:0.05mm;fill:#ff0000" d="M50.612804,12.500000L65.612808,12.500000"/>
        <path transform="matrix(1.000000 0.000000 0.000000 -1.000000 669.681885 382.413910)" style="stroke:#ff0000;stroke-width:0.05mm;fill:#ff0000" d="M-16.887196,80.000000L-16.887196,95.000000"/>
        <path transform="matrix(1.000000 0.000000 0.000000 -1.000000 669.681885 382.413910)" style="stroke:#ff0000;stroke-width:0.05mm;fill:#ff0000" d="M-84.387192,12.500000L-99.387192,12.500000"/>
        <path transform="matrix(1.000000 0.000000 0.000000 -1.000000 669.681885 382.413910)" style="stroke:#ff0000;stroke-width:0.05mm;fill:#ff0000" d="M-84.387192,77.500000L-92.387192,77.500000"/>
        <path transform="matrix(1.000000 0.000000 0.000000 -1.000000 669.681885 382.413910)" style="stroke:#ff0000;stroke-width:0.05mm;fill:#ff0000" d="M-81.887192,80.000000L-81.887192,88.000000"/>
        <path transform="matrix(1.000000 0.000000 0.000000 -1.000000 669.681885 382.413910)" style="stroke:#ff0000;stroke-width:0.05mm;fill:#ff0000" d="M-84.387192,67.500000L-89.387192,67.500000"/>
        <path transform="matrix(1.000000 0.000000 0.000000 -1.000000 669.681885 382.413910)" style="stroke:#ff0000;stroke-width:0.05mm;fill:#ff0000" d="M-84.387192,57.500000L-89.387192,57.500000"/>
        <path transform="matrix(1.000000 0.000000 0.000000 -1.000000 669.681885 382.413910)" style="stroke:#ff0000;stroke-width:0.05mm;fill:#ff0000" d="M-84.387192,47.500000L-89.387192,47.500000"/>
        <path transform="matrix(1.000000 0.000000 0.000000 -1.000000 669.681885 382.413910)" style="stroke:#ff0000;stroke-width:0.05mm;fill:#ff0000" d="M-84.387192,37.500000L-89.387192,37.500000"/>
        <path transform="matrix(1.000000 0.000000 0.000000 -1.000000 669.681885 382.413910)" style="stroke:#ff0000;stroke-width:0.05mm;fill:#ff0000" d="M-84.387192,27.500000L-89.387192,27.500000"/>
        <path transform="matrix(1.000000 0.000000 0.000000 -1.000000 669.681885 382.413910)" style="stroke:#ff0000;stroke-width:0.05mm;fill:#ff0000" d="M-71.887192,80.000000L-71.887192,85.000000"/>
        <path transform="matrix(1.000000 0.000000 0.000000 -1.000000 669.681885 382.413910)" style="stroke:#ff0000;stroke-width:0.05mm;fill:#ff0000" d="M-61.887196,80.000000L-61.887196,85.000000"/>
        <path transform="matrix(1.000000 0.000000 0.000000 -1.000000 669.681885 382.413910)" style="stroke:#ff0000;stroke-width:0.05mm;fill:#ff0000" d="M-51.887196,80.000000L-51.887196,85.000000"/>
        <path transform="matrix(1.000000 0.000000 0.000000 -1.000000 669.681885 382.413910)" style="stroke:#ff0000;stroke-width:0.05mm;fill:#ff0000" d="M-41.887196,80.000000L-41.887196,85.000000"/>
        <path transform="matrix(1.000000 0.000000 0.000000 -1.000000 669.681885 382.413910)" style="stroke:#ff0000;stroke-width:0.05mm;fill:#ff0000" d="M-31.887196,80.000000L-31.887196,85.000000"/>
        <path transform="matrix(1.000000 0.000000 0.000000 -1.000000 669.681885 382.413910)" style="stroke:#ff0000;stroke-width:0.05mm;fill:#ff0000" d="M-31.887196,-55.000000L-31.887196,-60.000000"/>
        <path transform="matrix(1.000000 0.000000 0.000000 -1.000000 669.681885 382.413910)" style="stroke:#ff0000;stroke-width:0.05mm;fill:#ff0000" d="M-41.887196,-55.000000L-41.887196,-60.000000"/>
        <path transform="matrix(1.000000 0.000000 0.000000 -1.000000 669.681885 382.413910)" style="stroke:#ff0000;stroke-width:0.05mm;fill:#ff0000" d="M-51.887196,-55.000000L-51.887196,-60.000000"/>
        <path transform="matrix(1.000000 0.000000 0.000000 -1.000000 669.681885 382.413910)" style="stroke:#ff0000;stroke-width:0.05mm;fill:#ff0000" d="M-61.887196,-55.000000L-61.887196,-60.000000"/>
        <path transform="matrix(1.000000 0.000000 0.000000 -1.000000 669.681885 382.413910)" style="stroke:#ff0000;stroke-width:0.05mm;fill:#ff0000" d="M-71.887192,-55.000000L-71.887192,-60.000000"/>
        <path transform="matrix(1.000000 0.000000 0.000000 -1.000000 669.681885 382.413910)" style="stroke:#ff0000;stroke-width:0.05mm;fill:#ff0000" d="M-81.887192,-55.000000L-81.887192,-63.000000"/>
        <path transform="matrix(1.000000 0.000000 0.000000 -1.000000 669.681885 382.413910)" style="stroke:#ff0000;stroke-width:0.05mm;fill:#ff0000" d="M-84.387192,-52.500000L-92.387192,-52.500000"/>
        <path transform="matrix(1.000000 0.000000 0.000000 -1.000000 669.681885 382.413910)" style="stroke:#ff0000;stroke-width:0.05mm;fill:#ff0000" d="M-84.387192,-42.500000L-89.387192,-42.500000"/>
        <path transform="matrix(1.000000 0.000000 0.000000 -1.000000 669.681885 382.413910)" style="stroke:#ff0000;stroke-width:0.05mm;fill:#ff0000" d="M-84.387192,-32.500000L-89.387192,-32.500000"/>
        <path transform="matrix(1.000000 0.000000 0.000000 -1.000000 669.681885 382.413910)" style="stroke:#ff0000;stroke-width:0.05mm;fill:#ff0000" d="M-84.387192,-22.500000L-89.387192,-22.500000"/>
        <path transform="matrix(1.000000 0.000000 0.000000 -1.000000 669.681885 382.413910)" style="stroke:#ff0000;stroke-width:0.05mm;fill:#ff0000" d="M-84.387192,-12.500000L-89.387192,-12.500000"/>
        <path transform="matrix(1.000000 0.000000 0.000000 -1.000000 669.681885 382.413910)" style="stroke:#ff0000;stroke-width:0.05mm;fill:#ff0000" d="M-84.387192,-2.500000L-89.387192,-2.500000"/>
        <path transform="matrix(1.000000 0.000000 0.000000 -1.000000 669.681885 382.413910)" style="stroke:#ff0000;stroke-width:0.05mm;fill:#ff0000" d="M50.612804,-2.500000L55.612804,-2.500000"/>
        <path transform="matrix(1.000000 0.000000 0.000000 -1.000000 669.681885 382.413910)" style="stroke:#ff0000;stroke-width:0.05mm;fill:#ff0000" d="M50.612804,-12.500000L55.612804,-12.500000"/>
        <path transform="matrix(1.000000 0.000000 0.000000 -1.000000 669.681885 382.413910)" style="stroke:#ff0000;stroke-width:0.05mm;fill:#ff0000" d="M50.612804,-22.500000L55.612804,-22.500000"/>
        <path transform="matrix(1.000000 0.000000 0.000000 -1.000000 669.681885 382.413910)" style="stroke:#ff0000;stroke-width:0.05mm;fill:#ff0000" d="M50.612804,-32.500000L55.612804,-32.500000"/>
        <path transform="matrix(1.000000 0.000000 0.000000 -1.000000 669.681885 382.413910)" style="stroke:#ff0000;stroke-width:0.05mm;fill:#ff0000" d="M50.612804,-42.500000L55.612804,-42.500000"/>
        <path transform="matrix(1.000000 0.000000 0.000000 -1.000000 669.681885 382.413910)" style="stroke:#ff0000;stroke-width:0.05mm;fill:#ff0000" d="M50.612804,-52.500000L58.612804,-52.500000"/>
        <path transform="matrix(1.000000 0.000000 0.000000 -1.000000 669.681885 382.413910)" style="stroke:#ff0000;stroke-width:0.05mm;fill:#ff0000" d="M48.112804,-55.000000L48.112804,-63.000000"/>
        <path transform="matrix(1.000000 0.000000 0.000000 -1.000000 669.681885 382.413910)" style="stroke:#ff0000;stroke-width:0.05mm;fill:#ff0000" d="M38.112804,-55.000000L38.112804,-60.000000"/>
        <path transform="matrix(1.000000 0.000000 0.000000 -1.000000 669.681885 382.413910)" style="stroke:#ff0000;stroke-width:0.05mm;fill:#ff0000" d="M28.112804,-55.000000L28.112804,-60.000000"/>
        <path transform="matrix(1.000000 0.000000 0.000000 -1.000000 669.681885 382.413910)" style="stroke:#ff0000;stroke-width:0.05mm;fill:#ff0000" d="M18.112804,-55.000000L18.112804,-60.000000"/>
        <path transform="matrix(1.000000 0.000000 0.000000 -1.000000 669.681885 382.413910)" style="stroke:#ff0000;stroke-width:0.05mm;fill:#ff0000" d="M8.112805,-55.000000L8.112805,-60.000000"/>
        <path transform="matrix(1.000000 0.000000 0.000000 -1.000000 669.681885 382.413910)" style="stroke:#ff0000;stroke-width:0.05mm;fill:#ff0000" d="M-1.887195,-55.000000L-1.887195,-60.000000"/>
        <path transform="matrix(1.000000 0.000000 0.000000 -1.000000 669.681885 382.413910)" style="stroke:#ff0000;stroke-width:0.05mm;fill:#ff0000" d="M-1.887195,80.000000L-1.887195,85.000000"/>
        <path transform="matrix(1.000000 0.000000 0.000000 -1.000000 669.681885 382.413910)" style="stroke:#ff0000;stroke-width:0.05mm;fill:#ff0000" d="M8.112805,80.000000L8.112805,85.000000"/>
        <path transform="matrix(1.000000 0.000000 0.000000 -1.000000 669.681885 382.413910)" style="stroke:#ff0000;stroke-width:0.05mm;fill:#ff0000" d="M18.112804,80.000000L18.112804,85.000000"/>
        <path transform="matrix(1.000000 0.000000 0.000000 -1.000000 669.681885 382.413910)" style="stroke:#ff0000;stroke-width:0.05mm;fill:#ff0000" d="M28.112804,80.000000L28.112804,85.000000"/>
        <path transform="matrix(1.000000 0.000000 0.000000 -1.000000 669.681885 382.413910)" style="stroke:#ff0000;stroke-width:0.05mm;fill:#ff0000" d="M38.112804,80.000000L38.112804,85.000000"/>
        <path transform="matrix(1.000000 0.000000 0.000000 -1.000000 669.681885 382.413910)" style="stroke:#ff0000;stroke-width:0.05mm;fill:#ff0000" d="M48.112804,80.000000L48.112804,88.000000"/>
        <path transform="matrix(1.000000 0.000000 0.000000 -1.000000 669.681885 382.413910)" style="stroke:#ff0000;stroke-width:0.05mm;fill:#ff0000" d="M50.612804,77.500000L58.612804,77.500000"/>
        <path transform="matrix(1.000000 0.000000 0.000000 -1.000000 669.681885 382.413910)" style="stroke:#ff0000;stroke-width:0.05mm;fill:#ff0000" d="M50.612804,67.500000L55.612804,67.500000"/>
        <path transform="matrix(1.000000 0.000000 0.000000 -1.000000 669.681885 382.413910)" style="stroke:#ff0000;stroke-width:0.05mm;fill:#ff0000" d="M50.612804,57.500000L55.612804,57.500000"/>
        <path transform="matrix(1.000000 0.000000 0.000000 -1.000000 669.681885 382.413910)" style="stroke:#ff0000;stroke-width:0.05mm;fill:#ff0000" d="M50.612804,47.500000L55.612804,47.500000"/>
        <path transform="matrix(1.000000 0.000000 0.000000 -1.000000 669.681885 382.413910)" style="stroke:#ff0000;stroke-width:0.05mm;fill:#ff0000" d="M50.612804,37.500000L55.612804,37.500000"/>
        <path transform="matrix(1.000000 0.000000 0.000000 -1.000000 669.681885 382.413910)" style="stroke:#ff0000;stroke-width:0.05mm;fill:#ff0000" d="M50.612804,27.500000L55.612804,27.500000"/>
    </g>
</svg>
