0
SECTION
2
HEADER
9
$INSUNITS
70
4
9
$ACADVER
1
AC1014
9
$HANDSEED
5
FFFF
0
ENDSEC
0
SECTION
2
TABLES
0
TABLE
2
VPORT
5
8
100
AcDbSymbolTable
0
ENDTAB
0
TABLE
2
LTYPE
5
5
100
AcDbSymbolTable
0
LTYPE
5
14
100
AcDbSymbolTableRecord
100
AcDbLinetypeTableRecord
2
BYBLOCK
70
0
0
LTYPE
5
15
100
AcDbSymbolTableRecord
100
AcDbLinetypeTableRecord
2
BYLAYER
70
0
0
ENDTAB
0
TABLE
2
LAYER
5
2
100
AcDbSymbolTable
70
2
0
LAYER
5
50
100
AcDbSymbolTableRecord
100
AcDbLayerTableRecord
2
0
70
0
6
CONTINUOUS
0
ENDTAB
0
TABLE
2
STYLE
5
3
100
AcDbSymbolTable
70
1
0
STYLE
5
11
100
AcDbSymbolTableRecord
100
AcDbTextStyleTableRecord
2
STANDARD
70
0
0
ENDTAB
0
TABLE
2
VIEW
5
6
100
AcDbSymbolTable
70
0
0
ENDTAB
0
TABLE
2
UCS
5
7
100
AcDbSymbolTable
70
0
0
ENDTAB
0
TABLE
2
APPID
5
9
100
AcDbSymbolTable
70
2
0
APPID
5
12
100
AcDbSymbolTableRecord
100
AcDbRegAppTableRecord
2
ACAD
70
0
0
ENDTAB
0
TABLE
2
DIMSTYLE
5
A
100
AcDbSymbolTable
70
1
0
ENDTAB
0
TABLE
2
BLOCK_RECORD
5
1
100
AcDbSymbolTable
70
1
0
BLOCK_RECORD
5
1F
100
AcDbSymbolTableRecord
100
AcDbBlockTableRecord
2
*MODEL_SPACE
0
BLOCK_RECORD
5
1B
100
AcDbSymbolTableRecord
100
AcDbBlockTableRecord
2
*PAPER_SPACE
0
ENDTAB
0
ENDSEC
0
SECTION
2
BLOCKS
0
BLOCK
5
20
100
AcDbEntity
100
AcDbBlockBegin
2
*MODEL_SPACE
0
ENDBLK
5
21
100
AcDbEntity
100
AcDbBlockEnd
0
BLOCK
5
1C
100
AcDbEntity
100
AcDbBlockBegin
2
*PAPER_SPACE
0
ENDBLK
5
1D
100
AcDbEntity
100
AcDbBlockEnd
0
ENDSEC
0
SECTION
2
ENTITIES
0
CIRCLE
5
100
100
AcDbEntity
8
0
100
AcDbCircle
10
43.338708229570585
20
189.16017474592334
30
0
40
1.6000000000000014
210
-0
220
2.4651903288156619e-32
230
1
0
CIRCLE
5
101
100
AcDbEntity
8
0
100
AcDbCircle
10
43.338708229570564
20
101.16017474592337
30
0
40
1.6000000000000014
210
-0
220
2.4651903288156619e-32
230
1
0
CIRCLE
5
102
100
AcDbEntity
8
0
100
AcDbCircle
10
131.33870822957056
20
189.1601747459234
30
0
40
1.6000000000000014
210
-0
220
2.4651903288156619e-32
230
1
0
CIRCLE
5
103
100
AcDbEntity
8
0
100
AcDbCircle
10
131.33870822957061
20
101.16017474592341
30
0
40
1.6000000000000014
210
-0
220
2.4651903288156619e-32
230
1
0
CIRCLE
5
104
100
AcDbEntity
8
0
100
AcDbCircle
10
-80.399999999996027
20
186.38807863816368
30
0
40
2.5999999999999979
210
0
220
0
230
1
0
CIRCLE
5
105
100
AcDbEntity
8
0
100
AcDbCircle
10
51.588708229570898
20
180.9101747459236
30
0
40
1.6000000000000014
210
0
220
2.4651903288156619e-32
230
1
0
CIRCLE
5
106
100
AcDbEntity
8
0
100
AcDbCircle
10
123.0887082295709
20
180.91017474592309
30
0
40
1.6000000000000014
210
0
220
2.4651903288156619e-32
230
1
0
CIRCLE
5
107
100
AcDbEntity
8
0
100
AcDbCircle
10
123.08870822957022
20
109.41017474592316
30
0
40
1.6000000000000014
210
0
220
2.4651903288156619e-32
230
1
0
CIRCLE
5
108
100
AcDbEntity
8
0
100
AcDbCircle
10
179.60000000000392
20
255.19999999999996
30
0
40
2.5999999999999979
210
0
220
0
230
1
0
CIRCLE
5
109
100
AcDbEntity
8
0
100
AcDbCircle
10
-80.399999999996083
20
255.19999999999996
30
0
40
2.5999999999999979
210
0
220
0
230
1
0
LWPOLYLINE
5
110
100
AcDbEntity
8
0
100
AcDbPolyline
90
6
70
1
43
0.0
10
90.338708229570585
20
130.46323628922434
10
90.338708229570585
20
109.50908780597163
42
0.45563960704568007
10
92.616486007348357
20
107.52847186486321
42
0.33475489223534138
10
124.97041111063076
20
139.88239696814563
42
0.45563960704567741
10
122.98979516952232
20
142.16017474592343
10
102.03564668626964
20
142.16017474592343
42
-0.30061413009175175
0
CIRCLE
5
111
100
AcDbEntity
8
0
100
AcDbCircle
10
51.588708229570308
20
109.41017474592374
30
0
40
1.6000000000000014
210
0
220
2.4651903288156619e-32
230
1
0
LWPOLYLINE
5
112
100
AcDbEntity
8
0
100
AcDbPolyline
90
6
70
1
43
0.0
10
72.641769772871555
20
142.16017474592346
10
51.687621289618789
20
142.16017474592337
42
0.45563960704566375
10
49.707005348510329
20
139.88239696814566
42
0.33475489223534188
10
82.060930451792785
20
107.52847186486321
42
0.45563960704567469
10
84.338708229570585
20
109.50908780597163
10
84.338708229570543
20
130.46323628922443
42
-0.30061413009175236
0
LWPOLYLINE
5
113
100
AcDbEntity
8
0
100
AcDbPolyline
90
6
70
1
43
0.0
10
84.338708229570585
20
159.85711320262251
10
84.338708229570614
20
180.81126168587519
42
0.45563960704568268
10
82.060930451792757
20
182.79187762698365
42
0.33475489223534216
10
49.70700534851035
20
150.43795252370114
42
0.45563960704567741
10
51.687621289618789
20
148.1601747459234
10
72.64176977287147
20
148.16017474592343
42
-0.30061413009175303
0
CIRCLE
5
114
100
AcDbEntity
8
0
100
AcDbCircle
10
46.889672793959214
20
80.199999999999136
30
0
40
2.6000000000000001
210
0
220
0
230
1
0
CIRCLE
5
115
100
AcDbEntity
8
0
100
AcDbCircle
10
179.60000000000394
20
85.19999999999996
30
0
40
2.5999999999999979
210
0
220
0
230
1
0
LWPOLYLINE
5
116
100
AcDbEntity
8
0
100
AcDbPolyline
90
6
70
1
43
0.0
10
102.03564668626964
20
148.16017474592346
10
122.98979516952232
20
148.16017474592346
42
0.45563960704568268
10
124.97041111063076
20
150.43795252370123
42
0.33475489223534138
10
92.616486007348357
20
182.79187762698365
42
0.45563960704567474
10
90.338708229570628
20
180.81126168587519
10
90.338708229570557
20
159.85711320262251
42
-0.30061413009175175
0
LWPOLYLINE
5
117
100
AcDbEntity
8
0
100
AcDbPolyline
90
13
70
1
43
0.0
10
192.60000000000394
20
220.20000016391265
10
153.60000000000369
20
220.20000016391265
42
0.41421356237308254
10
143.60000000000369
20
210.20000016391307
10
143.60000000000187
20
163.20000016391307
42
0.41421356237310647
10
153.60000000000187
20
153.2000001639127
10
192.600000000004
20
153.2000001639127
10
192.600000000004
20
70.19999999999996
10
31.889672793959214
20
70.199999999999932
10
31.889672793959278
20
169.38807863816365
42
0.41421356237309503
10
29.889672793959274
20
171.38807863816368
10
-123.39999999999607
20
171.38807863816368
10
-123.39999999999608
20
273.19999999999993
10
192.60000000000394
20
273.19999999999993
0
ENDSEC
0
SECTION
2
OBJECTS
0
DICTIONARY
5
C
100
AcDbDictionary
3
ACAD_GROUP
350
D
3
ACAD_MLINESTYLE
350
17
0
DICTIONARY
5
D
100
AcDbDictionary
0
DICTIONARY
5
1A
330
C
100
AcDbDictionary
0
DICTIONARY
5
17
100
AcDbDictionary
0
ENDSEC
0
EOF
