<?xml version="1.0" encoding="UTF-8" standalone="no"?>
<!-- Created with Inkscape (http://www.inkscape.org/) -->

<svg
   xmlns:dc="http://purl.org/dc/elements/1.1/"
   xmlns:cc="http://creativecommons.org/ns#"
   xmlns:rdf="http://www.w3.org/1999/02/22-rdf-syntax-ns#"
   xmlns:svg="http://www.w3.org/2000/svg"
   xmlns="http://www.w3.org/2000/svg"
   xmlns:sodipodi="http://sodipodi.sourceforge.net/DTD/sodipodi-0.dtd"
   xmlns:inkscape="http://www.inkscape.org/namespaces/inkscape"
   width="316.26459mm"
   height="203.26459mm"
   viewBox="0 0 316.26459 203.26459"
   version="1.1"
   id="svg8"
   inkscape:version="0.92.4 (5da689c313, 2019-01-14)"
   sodipodi:docname="BackPanel.svg">
  <defs
     id="defs2">
    <marker
       style="overflow:visible"
       refY="0"
       refX="0"
       orient="auto"
       id="DistanceX">
      <path
         id="path12"
         style="stroke:#000000;stroke-width:0.5"
         d="M 3,-3 -3,3 M 0,-5 V 5"
         inkscape:connector-curvature="0" />
    </marker>
    <pattern
       y="0"
       x="0"
       width="8"
       patternUnits="userSpaceOnUse"
       id="Hatch"
       height="8">
      <path
         id="path15"
         stroke-width="0.25"
         stroke="#000000"
         linecap="square"
         d="M8 4 l-4,4" />
      <path
         id="path17"
         stroke-width="0.25"
         stroke="#000000"
         linecap="square"
         d="M6 2 l-4,4" />
      <path
         id="path19"
         stroke-width="0.25"
         stroke="#000000"
         linecap="square"
         d="M4 0 l-4,4" />
    </pattern>
    <symbol
       id="*MODEL_SPACE" />
    <symbol
       id="*PAPER_SPACE" />
  </defs>
  <sodipodi:namedview
     id="base"
     pagecolor="#ffffff"
     bordercolor="#666666"
     borderopacity="1.0"
     inkscape:pageopacity="0.0"
     inkscape:pageshadow="2"
     inkscape:zoom="0.35"
     inkscape:cx="-276.62036"
     inkscape:cy="941.2649"
     inkscape:document-units="mm"
     inkscape:current-layer="layer1"
     showgrid="false"
     inkscape:window-width="1920"
     inkscape:window-height="1017"
     inkscape:window-x="-8"
     inkscape:window-y="-8"
     inkscape:window-maximized="1"
     fit-margin-top="0"
     fit-margin-left="0"
     fit-margin-right="0"
     fit-margin-bottom="0" />
  <metadata
     id="metadata5">
    <rdf:RDF>
      <cc:Work
         rdf:about="">
        <dc:format>image/svg+xml</dc:format>
        <dc:type
           rdf:resource="http://purl.org/dc/dcmitype/StillImage" />
        <dc:title></dc:title>
      </cc:Work>
    </rdf:RDF>
  </metadata>
  <g
     inkscape:label="Layer 1"
     inkscape:groupmode="layer"
     id="layer1"
     transform="translate(-83.77247,-194.61176)">
    <g
       id="g62"
       inkscape:label="0"
       transform="matrix(0.26458333,0,0,0.26458333,207.30476,170.94405)">
      <path
         id="path26"
         style="fill:none;stroke:#000000"
         d="m 169.84709,407.58359 a 6.047245,6.047245 0 1 0 -12.09449,0 6.047245,6.047245 0 1 0 12.09449,0 z"
         inkscape:connector-curvature="0" />
      <path
         id="path28"
         style="fill:none;stroke:#000000"
         d="m 169.84709,740.18202 a 6.047245,6.047245 0 1 0 -12.09449,0 6.047245,6.047245 0 1 0 12.09449,0 z"
         inkscape:connector-curvature="0" />
      <path
         id="path30"
         style="fill:none;stroke:#000000"
         d="m 502.44551,407.58359 a 6.047245,6.047245 0 1 0 -12.09449,0 6.047245,6.047245 0 1 0 12.09449,0 z"
         inkscape:connector-curvature="0" />
      <path
         id="path32"
         style="fill:none;stroke:#000000"
         d="m 502.44551,740.18202 a 6.047245,6.047245 0 1 0 -12.09449,0 6.047245,6.047245 0 1 0 12.09449,0 z"
         inkscape:connector-curvature="0" />
      <path
         id="path34"
         style="fill:none;stroke:#000000"
         d="m -294.04724,418.06081 a 9.826775,9.826775 0 1 0 -19.65355,0 9.826775,9.826775 0 1 0 19.65355,0 z"
         inkscape:connector-curvature="0" />
      <path
         id="path36"
         style="fill:none;stroke:#000000"
         d="m 201.02819,438.76469 a 6.047245,6.047245 0 1 0 -12.09449,0 6.047245,6.047245 0 1 0 12.09449,0 z"
         inkscape:connector-curvature="0" />
      <path
         id="path38"
         style="fill:none;stroke:#000000"
         d="m 471.26441,438.76469 a 6.047245,6.047245 0 1 0 -12.09449,0 6.047245,6.047245 0 1 0 12.09449,0 z"
         inkscape:connector-curvature="0" />
      <path
         id="path40"
         style="fill:none;stroke:#000000"
         d="m 471.26441,709.00091 a 6.047245,6.047245 0 1 0 -12.09449,0 6.047245,6.047245 0 1 0 12.09449,0 z"
         inkscape:connector-curvature="0" />
      <path
         id="path42"
         style="fill:none;stroke:#000000"
         d="m 688.62992,157.98425 a 9.826772,9.826772 0 1 0 -19.65354,0 9.826772,9.826772 0 1 0 19.65354,0 z"
         inkscape:connector-curvature="0" />
      <path
         id="path44"
         style="fill:none;stroke:#000000"
         d="m -294.04724,157.98425 a 9.826775,9.826775 0 1 0 -19.65355,0 9.826775,9.826775 0 1 0 19.65355,0 z"
         inkscape:connector-curvature="0" />
      <path
         id="path46"
         style="fill:none;stroke:#000000"
         d="m 341.43764,629.43029 v 79.19678 a 7.559055,7.559055 0 0 0 8.60892,7.48579 143.62205,143.62205 0 0 0 122.28255,-122.28255 7.559055,7.559055 0 0 0 -7.48579,-8.60892 h -79.19678 a 56.692913,56.692913 0 0 1 -44.2089,44.2089 z"
         inkscape:connector-curvature="0" />
      <path
         id="path48"
         style="fill:none;stroke:#000000"
         d="m 201.02819,709.00091 a 6.047245,6.047245 0 1 0 -12.09449,0 6.047245,6.047245 0 1 0 12.09449,0 z"
         inkscape:connector-curvature="0" />
      <path
         id="path50"
         style="fill:none;stroke:#000000"
         d="m 274.55157,585.22139 h -79.19678 a 7.559055,7.559055 0 0 0 -7.48579,8.60892 143.62205,143.62205 0 0 0 122.28255,122.28255 7.559055,7.559055 0 0 0 8.60892,-7.48579 v -79.19678 a 56.692913,56.692913 0 0 1 -44.2089,-44.2089 z"
         inkscape:connector-curvature="0" />
      <path
         id="path52"
         style="fill:none;stroke:#000000"
         d="m 318.76047,518.33532 v -79.19678 a 7.559055,7.559055 0 0 0 -8.60892,-7.48579 143.62205,143.62205 0 0 0 -122.28255,122.28255 7.559055,7.559055 0 0 0 7.48579,8.60892 h 79.19678 a 56.692913,56.692913 0 0 1 44.2089,-44.2089 z"
         inkscape:connector-curvature="0" />
      <path
         id="path54"
         style="fill:none;stroke:#000000"
         d="m 187.04758,819.40157 a 9.826772,9.826772 0 1 0 -19.65354,0 9.826772,9.826772 0 1 0 19.65354,0 z"
         inkscape:connector-curvature="0" />
      <path
         id="path56"
         style="fill:none;stroke:#000000"
         d="m 688.62992,800.50394 a 9.826772,9.826772 0 1 0 -19.65354,0 9.826772,9.826772 0 1 0 19.65354,0 z"
         inkscape:connector-curvature="0" />
      <path
         id="path58"
         style="fill:none;stroke:#000000"
         d="m 385.64654,562.54422 h 79.19678 a 7.559055,7.559055 0 0 0 7.48579,-8.60892 143.62205,143.62205 0 0 0 -122.28255,-122.28255 7.559055,7.559055 0 0 0 -8.60892,7.48579 v 79.19678 a 56.692913,56.692913 0 0 1 44.2089,44.2089 z"
         inkscape:connector-curvature="0" />
      <path
         id="path60"
         style="fill:none;stroke:#000000"
         d="M 727.93701,290.26772 H 580.53543 a 37.795276,37.795276 0 0 0 -37.79527,37.79527 v 177.6378 a 37.795276,37.795276 0 0 0 37.79527,37.79527 H 727.93701 V 857.19685 H 120.5279 V 482.31277 a 7.559055,7.559055 0 0 0 -7.55906,-7.55905 H -466.3937 V 89.952756 H 727.93701 Z"
         inkscape:connector-curvature="0" />
    </g>
  </g>
</svg>
