<?xml version="1.0" encoding="UTF-8" standalone="no"?>
<!-- Created with Inkscape (http://www.inkscape.org/) -->

<svg
   xmlns:dc="http://purl.org/dc/elements/1.1/"
   xmlns:cc="http://creativecommons.org/ns#"
   xmlns:rdf="http://www.w3.org/1999/02/22-rdf-syntax-ns#"
   xmlns:svg="http://www.w3.org/2000/svg"
   xmlns="http://www.w3.org/2000/svg"
   xmlns:sodipodi="http://sodipodi.sourceforge.net/DTD/sodipodi-0.dtd"
   xmlns:inkscape="http://www.inkscape.org/namespaces/inkscape"
   width="203.26459mm"
   height="316.26459mm"
   viewBox="0 0 203.26459 316.26459"
   version="1.1"
   id="svg8"
   sodipodi:docname="FrontPanel.svg"
   inkscape:version="0.92.4 (5da689c313, 2019-01-14)">
  <defs
     id="defs2">
    <marker
       style="overflow:visible"
       refY="0"
       refX="0"
       orient="auto"
       id="DistanceX">
      <path
         id="path99"
         style="stroke:#000000;stroke-width:0.5"
         d="M 3,-3 -3,3 M 0,-5 V 5"
         inkscape:connector-curvature="0" />
    </marker>
    <pattern
       y="0"
       x="0"
       width="8"
       patternUnits="userSpaceOnUse"
       id="Hatch"
       height="8">
      <path
         id="path102"
         stroke-width="0.25"
         stroke="#000000"
         linecap="square"
         d="M8 4 l-4,4" />
      <path
         id="path104"
         stroke-width="0.25"
         stroke="#000000"
         linecap="square"
         d="M6 2 l-4,4" />
      <path
         id="path106"
         stroke-width="0.25"
         stroke="#000000"
         linecap="square"
         d="M4 0 l-4,4" />
    </pattern>
    <symbol
       id="*MODEL_SPACE" />
    <symbol
       id="*PAPER_SPACE" />
    <marker
       style="overflow:visible"
       refY="0"
       refX="0"
       orient="auto"
       id="DistanceX-9">
      <path
         id="path171"
         style="stroke:#000000;stroke-width:0.5"
         d="M 3,-3 -3,3 M 0,-5 V 5"
         inkscape:connector-curvature="0" />
    </marker>
    <pattern
       y="0"
       x="0"
       width="8"
       patternUnits="userSpaceOnUse"
       id="Hatch-1"
       height="8">
      <path
         id="path174"
         stroke-width="0.25"
         stroke="#000000"
         linecap="square"
         d="M8 4 l-4,4" />
      <path
         id="path176"
         stroke-width="0.25"
         stroke="#000000"
         linecap="square"
         d="M6 2 l-4,4" />
      <path
         id="path178"
         stroke-width="0.25"
         stroke="#000000"
         linecap="square"
         d="M4 0 l-4,4" />
    </pattern>
    <symbol
       id="*MODEL_SPACE-0" />
    <symbol
       id="*PAPER_SPACE-3" />
  </defs>
  <sodipodi:namedview
     id="base"
     pagecolor="#ffffff"
     bordercolor="#666666"
     borderopacity="1.0"
     inkscape:pageopacity="0.0"
     inkscape:pageshadow="2"
     inkscape:zoom="0.35"
     inkscape:cx="-510.1648"
     inkscape:cy="1151.2638"
     inkscape:document-units="mm"
     inkscape:current-layer="layer1"
     showgrid="false"
     inkscape:window-width="1920"
     inkscape:window-height="1017"
     inkscape:window-x="-8"
     inkscape:window-y="-8"
     inkscape:window-maximized="1"
     fit-margin-top="0"
     fit-margin-left="0"
     fit-margin-right="0"
     fit-margin-bottom="0" />
  <metadata
     id="metadata5">
    <rdf:RDF>
      <cc:Work
         rdf:about="">
        <dc:format>image/svg+xml</dc:format>
        <dc:type
           rdf:resource="http://purl.org/dc/dcmitype/StillImage" />
        <dc:title></dc:title>
      </cc:Work>
    </rdf:RDF>
  </metadata>
  <g
     inkscape:label="Layer 1"
     inkscape:groupmode="layer"
     id="layer1"
     transform="translate(-63.681848,-36.297615)">
    <g
       id="g203"
       inkscape:label="0"
       transform="matrix(0.26458333,0,0,0.26458333,666.41413,37.229907)">
      <path
         id="path185"
         style="fill:none;stroke:#000000"
         d="m -2161.8898,926.74016 a 6.04725,6.04725 0 1 0 -12.0945,0 6.04725,6.04725 0 1 0 12.0945,0 z"
         inkscape:connector-curvature="0" />
      <path
         id="path187"
         style="fill:none;stroke:#000000"
         d="m -2161.8898,337.13386 a 6.04725,6.04725 0 1 0 -12.0945,0 6.04725,6.04725 0 1 0 12.0945,0 z"
         inkscape:connector-curvature="0" />
      <path
         id="path189"
         style="fill:none;stroke:#000000"
         d="m -2161.8898,374.92913 a 6.04725,6.04725 0 1 0 -12.0945,0 6.04725,6.04725 0 1 0 12.0945,0 z"
         inkscape:connector-curvature="0" />
      <path
         id="path191"
         style="fill:none;stroke:#000000"
         d="m -1602.5197,337.13386 a 6.04725,6.04725 0 1 0 -12.0945,0 6.04725,6.04725 0 1 0 12.0945,0 z"
         inkscape:connector-curvature="0" />
      <path
         id="path193"
         style="fill:none;stroke:#000000"
         d="m -1602.5197,374.92913 a 6.04725,6.04725 0 1 0 -12.0945,0 6.04725,6.04725 0 1 0 12.0945,0 z"
         inkscape:connector-curvature="0" />
      <path
         id="path195"
         style="fill:none;stroke:#000000"
         d="m -1602.5197,964.53543 a 6.04725,6.04725 0 1 0 -12.0945,0 6.04725,6.04725 0 1 0 12.0945,0 z"
         inkscape:connector-curvature="0" />
      <path
         id="path197"
         style="fill:none;stroke:#000000"
         d="m -2161.8898,964.53543 a 6.04725,6.04725 0 1 0 -12.0945,0 6.04725,6.04725 0 1 0 12.0945,0 z"
         inkscape:connector-curvature="0" />
      <path
         id="path199"
         style="fill:none;stroke:#000000"
         d="m -1602.5197,926.74016 a 6.04725,6.04725 0 1 0 -12.0945,0 6.04725,6.04725 0 1 0 12.0945,0 z"
         inkscape:connector-curvature="0" />
      <path
         id="path201"
         style="fill:none;stroke:#000000"
         d="m -1566.9921,845.48032 h 56.6929 v 345.82678 h -767.2441 V -3.023622 h 767.2441 V 467.52756 h -56.6929 a 15.11811,15.11811 0 0 0 -15.1181,15.11811 v 347.71654 a 15.11811,15.11811 0 0 0 15.1181,15.11811 z"
         inkscape:connector-curvature="0" />
    </g>
  </g>
</svg>
