0
SECTION
2
HEADER
9
$INSUNITS
70
4
9
$ACADVER
1
AC1014
9
$HANDSEED
5
FFFF
0
ENDSEC
0
SECTION
2
TABLES
0
TABLE
2
VPORT
5
8
100
AcDbSymbolTable
0
ENDTAB
0
TABLE
2
LTYPE
5
5
100
AcDbSymbolTable
0
LTYPE
5
14
100
AcDbSymbolTableRecord
100
AcDbLinetypeTableRecord
2
BYBLOCK
70
0
0
LTYPE
5
15
100
AcDbSymbolTableRecord
100
AcDbLinetypeTableRecord
2
BYLAYER
70
0
0
ENDTAB
0
TABLE
2
LAYER
5
2
100
AcDbSymbolTable
70
2
0
LAYER
5
50
100
AcDbSymbolTableRecord
100
AcDbLayerTableRecord
2
0
70
0
6
CONTINUOUS
0
ENDTAB
0
TABLE
2
STYLE
5
3
100
AcDbSymbolTable
70
1
0
STYLE
5
11
100
AcDbSymbolTableRecord
100
AcDbTextStyleTableRecord
2
STANDARD
70
0
0
ENDTAB
0
TABLE
2
VIEW
5
6
100
AcDbSymbolTable
70
0
0
ENDTAB
0
TABLE
2
UCS
5
7
100
AcDbSymbolTable
70
0
0
ENDTAB
0
TABLE
2
APPID
5
9
100
AcDbSymbolTable
70
2
0
APPID
5
12
100
AcDbSymbolTableRecord
100
AcDbRegAppTableRecord
2
ACAD
70
0
0
ENDTAB
0
TABLE
2
DIMSTYLE
5
A
100
AcDbSymbolTable
70
1
0
ENDTAB
0
TABLE
2
BLOCK_RECORD
5
1
100
AcDbSymbolTable
70
1
0
BLOCK_RECORD
5
1F
100
AcDbSymbolTableRecord
100
AcDbBlockTableRecord
2
*MODEL_SPACE
0
BLOCK_RECORD
5
1B
100
AcDbSymbolTableRecord
100
AcDbBlockTableRecord
2
*PAPER_SPACE
0
ENDTAB
0
ENDSEC
0
SECTION
2
BLOCKS
0
BLOCK
5
20
100
AcDbEntity
100
AcDbBlockBegin
2
*MODEL_SPACE
0
ENDBLK
5
21
100
AcDbEntity
100
AcDbBlockEnd
0
BLOCK
5
1C
100
AcDbEntity
100
AcDbBlockBegin
2
*PAPER_SPACE
0
ENDBLK
5
1D
100
AcDbEntity
100
AcDbBlockEnd
0
ENDSEC
0
SECTION
2
ENTITIES
0
CIRCLE
5
100
100
AcDbEntity
8
0
100
AcDbCircle
10
573.6000000000131
20
-51.799999999999855
30
0
40
1.6000000000000014
210
-2.4651903288156619e-32
220
-5.4738221262688155e-48
230
1
0
CIRCLE
5
101
100
AcDbEntity
8
0
100
AcDbCircle
10
573.60000000000298
20
-207.79999999999987
30
0
40
1.6000000000000014
210
-2.4651903288156619e-32
220
-5.4738221262688155e-48
230
1
0
CIRCLE
5
102
100
AcDbEntity
8
0
100
AcDbCircle
10
573.60000000000366
20
-197.79999999999987
30
0
40
1.6000000000000014
210
-2.4651903288156619e-32
220
-5.4738221262688155e-48
230
1
0
CIRCLE
5
103
100
AcDbEntity
8
0
100
AcDbCircle
10
425.5999999999998
20
-207.80000000000001
30
0
40
1.6000000000000014
210
-2.4651903288156619e-32
220
-5.4738221262688155e-48
230
1
0
CIRCLE
5
104
100
AcDbEntity
8
0
100
AcDbCircle
10
425.5999999999998
20
-197.80000000000001
30
0
40
1.6000000000000014
210
-2.4651903288156619e-32
220
-5.4738221262688155e-48
230
1
0
CIRCLE
5
105
100
AcDbEntity
8
0
100
AcDbCircle
10
425.5999999999998
20
-41.799999999999962
30
0
40
1.6000000000000014
210
-2.4651903288156619e-32
220
-5.4738221262688155e-48
230
1
0
CIRCLE
5
106
100
AcDbEntity
8
0
100
AcDbCircle
10
573.60000000001367
20
-41.799999999999855
30
0
40
1.6000000000000014
210
-2.4651903288156619e-32
220
-5.4738221262688155e-48
230
1
0
CIRCLE
5
107
100
AcDbEntity
8
0
100
AcDbCircle
10
425.5999999999998
20
-51.799999999999962
30
0
40
1.6000000000000014
210
-2.4651903288156619e-32
220
-5.4738221262688155e-48
230
1
0
LWPOLYLINE
5
108
100
AcDbEntity
8
0
100
AcDbPolyline
90
10
70
1
43
0.0
10
414.59999999999991
20
-73.299999999999869
10
399.59999999999991
20
-73.299999999999869
10
399.60000000000349
20
18.200000000000074
10
602.60000000000002
20
18.200000000000145
10
602.60000000000002
20
-297.79999999999984
10
399.60000000000355
20
-297.79999999999995
10
399.59999999999991
20
-173.29999999999987
10
414.59999999999991
20
-173.29999999999984
42
0.41421356237309503
10
418.60000000000002
20
-169.29999999999984
10
418.59999999999991
20
-77.299999999999869
42
0.41421356237309503
0
CIRCLE
5
109
100
AcDbEntity
8
0
100
AcDbCircle
10
201.60000000000218
20
-10.799999999990249
30
0
40
1.6000000000000014
210
-2.4651903288156619e-32
220
-5.4738221262688155e-48
230
1
0
CIRCLE
5
110
100
AcDbEntity
8
0
100
AcDbCircle
10
327.59999999999621
20
-238.79999999999546
30
0
40
1.6000000000000014
210
-2.4651903288156619e-32
220
-5.4738221262688155e-48
230
1
0
CIRCLE
5
111
100
AcDbEntity
8
0
100
AcDbCircle
10
337.60000000000218
20
-10.799999999990177
30
0
40
1.6000000000000014
210
-2.4651903288156619e-32
220
-5.4738221262688155e-48
230
1
0
CIRCLE
5
112
100
AcDbEntity
8
0
100
AcDbCircle
10
211.60000000000218
20
-10.799999999990249
30
0
40
1.6000000000000014
210
-2.4651903288156619e-32
220
-5.4738221262688155e-48
230
1
0
CIRCLE
5
113
100
AcDbEntity
8
0
100
AcDbCircle
10
201.59999999999621
20
-238.79999999999569
30
0
40
1.6000000000000014
210
-2.4651903288156619e-32
220
-5.4738221262688155e-48
230
1
0
CIRCLE
5
114
100
AcDbEntity
8
0
100
AcDbCircle
10
211.59999999999621
20
-238.79999999999569
30
0
40
1.6000000000000014
210
-2.4651903288156619e-32
220
-5.4738221262688155e-48
230
1
0
LWPOLYLINE
5
115
100
AcDbEntity
8
0
100
AcDbPolyline
90
8
70
1
43
0.0
10
325.59999999999991
20
-244.80000000000359
10
213.59999999999988
20
-244.80000000000359
42
0.41421356237309503
10
211.59999999999991
20
-246.80000000000362
10
211.59999999999994
20
-262.80000000000365
42
0.41421356237309503
10
213.59999999999991
20
-264.80000000000359
10
325.59999999999991
20
-264.80000000000359
42
0.41421356237309503
10
327.59999999999991
20
-262.80000000000359
10
327.59999999999991
20
-246.80000000000359
42
0.41421356237309503
0
CIRCLE
5
116
100
AcDbEntity
8
0
100
AcDbCircle
10
327.60000000000218
20
-10.799999999990177
30
0
40
1.6000000000000014
210
-2.4651903288156619e-32
220
-5.4738221262688155e-48
230
1
0
CIRCLE
5
117
100
AcDbEntity
8
0
100
AcDbCircle
10
337.59999999999621
20
-238.79999999999546
30
0
40
1.6000000000000014
210
-2.4651903288156619e-32
220
-5.4738221262688155e-48
230
1
0
LWPOLYLINE
5
118
100
AcDbEntity
8
0
100
AcDbPolyline
90
10
70
1
43
0.0
10
213.59999999999985
20
-4.8000000000035925
10
325.59999999999991
20
-4.8000000000035925
42
0.41421356237309503
10
327.59999999999985
20
-2.8000000000035641
10
327.59999999999985
20
18.199999999996379
10
394.59999999999985
20
18.199999999996379
10
394.59999999999991
20
-297.80000000000359
10
144.59999999999991
20
-297.80000000000365
10
144.59999999999985
20
18.199999999996379
10
211.59999999999985
20
18.199999999996379
10
211.59999999999985
20
-2.8000000000035641
42
0.41421356237309503
0
CIRCLE
5
119
100
AcDbEntity
8
0
100
AcDbCircle
10
412.60000000000002
20
238.20000000000007
30
0
40
2.5999999999999979
210
1.0947644252537631e-47
220
-2.4651903288156619e-32
230
1
0
CIRCLE
5
120
100
AcDbEntity
8
0
100
AcDbCircle
10
412.60000000000014
20
58.200000000000038
30
0
40
2.6000000000000068
210
1.0947644252537631e-47
220
-2.4651903288156619e-32
230
1
0
CIRCLE
5
121
100
AcDbEntity
8
0
100
AcDbCircle
10
592.60000000000002
20
238.20000000000022
30
0
40
2.5999999999999979
210
1.0947644252537631e-47
220
-2.4651903288156619e-32
230
1
0
CIRCLE
5
122
100
AcDbEntity
8
0
100
AcDbCircle
10
592.60000000000014
20
58.200000000000074
30
0
40
2.6000000000000068
210
1.0947644252537631e-47
220
-2.4651903288156619e-32
230
1
0
LWPOLYLINE
5
123
100
AcDbEntity
8
0
100
AcDbPolyline
90
10
70
1
43
0.0
10
417.60000000000002
20
198.20000000000005
10
402.60000000000002
20
198.20000000000005
10
402.60000000000002
20
273.20000000000005
10
602.60000000000002
20
273.20000000000022
10
602.60000000000002
20
23.200000000000145
10
402.60000000000014
20
23.200000000000003
10
402.60000000000014
20
98.200000000000045
10
417.60000000000002
20
98.200000000000088
42
0.41421356237309503
10
421.60000000000014
20
102.2000000000001
10
421.60000000000002
20
194.20000000000005
42
0.41421356237309503
0
CIRCLE
5
124
100
AcDbEntity
8
0
100
AcDbCircle
10
201.60000000000048
20
258.20000000000027
30
0
40
1.5999999999999837
210
-1.538522368933233e-64
220
-1.2325951644078309e-32
230
1
0
CIRCLE
5
125
100
AcDbEntity
8
0
100
AcDbCircle
10
201.60000000000366
20
38.200000000000074
30
0
40
1.6000000000000014
210
0
220
-0
230
1
0
CIRCLE
5
126
100
AcDbEntity
8
0
100
AcDbCircle
10
393.60000000000025
20
38.199999999999861
30
0
40
1.5999999999999837
210
-1.538522368933233e-64
220
-1.2325951644078309e-32
230
1
0
CIRCLE
5
127
100
AcDbEntity
8
0
100
AcDbCircle
10
393.60000000000025
20
258.19999999999987
30
0
40
1.5999999999999925
210
0
220
-0
230
1
0
LWPOLYLINE
5
128
100
AcDbEntity
8
0
100
AcDbPolyline
90
10
70
1
43
0.0
10
212.60000000000034
20
198.1999999999999
10
197.60000000000034
20
198.1999999999999
10
197.60000000000386
20
273.19999999999993
10
397.60000000000036
20
273.19999999999987
10
397.60000000000036
20
23.199999999999932
10
197.60000000000389
20
23.200000000000003
10
197.60000000000034
20
98.199999999999903
10
212.60000000000034
20
98.199999999999946
42
0.41421356237309764
10
216.60000000000036
20
102.19999999999999
10
216.60000000000031
20
194.1999999999999
42
0.41421356237309503
0
CIRCLE
5
129
100
AcDbEntity
8
0
100
AcDbCircle
10
43.338708229570585
20
189.16017474592334
30
0
40
1.6000000000000014
210
0
220
-0
230
1
0
CIRCLE
5
130
100
AcDbEntity
8
0
100
AcDbCircle
10
43.338708229570564
20
101.16017474592337
30
0
40
1.6000000000000014
210
0
220
-0
230
1
0
CIRCLE
5
131
100
AcDbEntity
8
0
100
AcDbCircle
10
131.33870822957056
20
189.1601747459234
30
0
40
1.6000000000000014
210
0
220
-0
230
1
0
CIRCLE
5
132
100
AcDbEntity
8
0
100
AcDbCircle
10
131.33870822957061
20
101.16017474592341
30
0
40
1.6000000000000014
210
0
220
-0
230
1
0
CIRCLE
5
133
100
AcDbEntity
8
0
100
AcDbCircle
10
-80.399999999996027
20
186.38807863816368
30
0
40
2.5999999999999979
210
-2.4651903288156619e-32
220
1.2154326714572537e-63
230
1
0
CIRCLE
5
134
100
AcDbEntity
8
0
100
AcDbCircle
10
51.588708229570898
20
180.9101747459236
30
0
40
1.6000000000000014
210
0
220
-0
230
1
0
CIRCLE
5
135
100
AcDbEntity
8
0
100
AcDbCircle
10
123.0887082295709
20
180.91017474592309
30
0
40
1.6000000000000014
210
0
220
-0
230
1
0
CIRCLE
5
136
100
AcDbEntity
8
0
100
AcDbCircle
10
123.08870822957022
20
109.41017474592316
30
0
40
1.6000000000000014
210
0
220
-0
230
1
0
CIRCLE
5
137
100
AcDbEntity
8
0
100
AcDbCircle
10
179.60000000000392
20
255.19999999999996
30
0
40
2.5999999999999979
210
-2.4651903288156619e-32
220
1.2154326714572537e-63
230
1
0
CIRCLE
5
138
100
AcDbEntity
8
0
100
AcDbCircle
10
-80.399999999996083
20
255.19999999999996
30
0
40
2.5999999999999979
210
-2.4651903288156619e-32
220
1.2154326714572537e-63
230
1
0
LWPOLYLINE
5
139
100
AcDbEntity
8
0
100
AcDbPolyline
90
6
70
1
43
0.0
10
90.338708229570585
20
130.46323628922434
10
90.338708229570585
20
109.50908780597163
42
0.45563960704568007
10
92.616486007348357
20
107.52847186486321
42
0.33475489223534138
10
124.97041111063076
20
139.88239696814563
42
0.45563960704567741
10
122.98979516952232
20
142.16017474592343
10
102.03564668626964
20
142.16017474592343
42
-0.30061413009175175
0
CIRCLE
5
140
100
AcDbEntity
8
0
100
AcDbCircle
10
51.588708229570308
20
109.41017474592374
30
0
40
1.6000000000000014
210
0
220
-0
230
1
0
LWPOLYLINE
5
141
100
AcDbEntity
8
0
100
AcDbPolyline
90
6
70
1
43
0.0
10
72.641769772871555
20
142.16017474592346
10
51.687621289618789
20
142.16017474592337
42
0.45563960704566375
10
49.707005348510329
20
139.88239696814566
42
0.33475489223534188
10
82.060930451792785
20
107.52847186486321
42
0.45563960704567469
10
84.338708229570585
20
109.50908780597163
10
84.338708229570543
20
130.46323628922443
42
-0.30061413009175236
0
LWPOLYLINE
5
142
100
AcDbEntity
8
0
100
AcDbPolyline
90
6
70
1
43
0.0
10
84.338708229570585
20
159.85711320262251
10
84.338708229570614
20
180.81126168587519
42
0.45563960704568268
10
82.060930451792757
20
182.79187762698365
42
0.33475489223534216
10
49.70700534851035
20
150.43795252370114
42
0.45563960704567741
10
51.687621289618789
20
148.1601747459234
10
72.64176977287147
20
148.16017474592343
42
-0.30061413009175303
0
CIRCLE
5
143
100
AcDbEntity
8
0
100
AcDbCircle
10
46.889672793959214
20
80.199999999999136
30
0
40
2.6000000000000001
210
-2.4651903288156619e-32
220
-1.2325951644078309e-32
230
1
0
CIRCLE
5
144
100
AcDbEntity
8
0
100
AcDbCircle
10
179.60000000000394
20
85.19999999999996
30
0
40
2.5999999999999979
210
-2.4651903288156619e-32
220
1.2154326714572537e-63
230
1
0
LWPOLYLINE
5
145
100
AcDbEntity
8
0
100
AcDbPolyline
90
6
70
1
43
0.0
10
102.03564668626964
20
148.16017474592346
10
122.98979516952232
20
148.16017474592346
42
0.45563960704568268
10
124.97041111063076
20
150.43795252370123
42
0.33475489223534138
10
92.616486007348357
20
182.79187762698365
42
0.45563960704567474
10
90.338708229570628
20
180.81126168587519
10
90.338708229570557
20
159.85711320262251
42
-0.30061413009175175
0
LWPOLYLINE
5
146
100
AcDbEntity
8
0
100
AcDbPolyline
90
13
70
1
43
0.0
10
192.60000000000394
20
220.20000016391265
10
153.60000000000369
20
220.20000016391265
42
0.41421356237308254
10
143.60000000000369
20
210.20000016391307
10
143.60000000000187
20
163.20000016391307
42
0.41421356237310647
10
153.60000000000187
20
153.2000001639127
10
192.600000000004
20
153.2000001639127
10
192.600000000004
20
70.19999999999996
10
31.889672793959214
20
70.199999999999932
10
31.889672793959278
20
169.38807863816365
42
0.41421356237309503
10
29.889672793959274
20
171.38807863816368
10
-123.39999999999607
20
171.38807863816368
10
-123.39999999999608
20
273.19999999999993
10
192.60000000000394
20
273.19999999999993
0
LWPOLYLINE
5
147
100
AcDbEntity
8
0
100
AcDbPolyline
90
8
70
1
43
0.0
10
-73.110327206040736
20
161.38807863816368
42
-0.41421356237309503
10
-68.110327206040736
20
166.38807863816368
10
21.889672793959257
20
166.38807863816368
42
-0.41421356237309453
10
26.889672793959257
20
161.38807863816368
10
26.889672793959267
20
71.388078638163677
42
-0.41421356237309553
10
21.889672793959257
20
66.388078638163677
10
-68.110327206040736
20
66.388078638163691
42
-0.41421356237309553
10
-73.110327206040736
20
71.388078638163677
0
LWPOLYLINE
5
148
100
AcDbEntity
8
0
100
AcDbPolyline
90
4
70
1
43
0.0
10
-60.991721055792411
20
119.38807863816368
42
-0.36864127551249043
10
-26.110327206040786
20
154.26947248791532
10
-26.110327206040751
20
131.08501709486276
42
0.30061413009175236
10
-37.807265662739852
20
119.38807863816368
0
LWPOLYLINE
5
149
100
AcDbEntity
8
0
100
AcDbPolyline
90
4
70
1
43
0.0
10
-26.110327206040793
20
78.506684788412002
42
-0.3686412755124906
10
-60.991721055792411
20
113.38807863816368
10
-37.80726566273983
20
113.38807863816371
42
0.30061413009175275
10
-26.110327206040786
20
101.6911401814646
0
LWPOLYLINE
5
150
100
AcDbEntity
8
0
100
AcDbPolyline
90
4
70
1
43
0.0
10
-20.1103272060408
20
154.26947248791527
42
-0.36864127551249093
10
14.771066643710844
20
119.38807863816368
10
-8.4133887493416921
20
119.38807863816372
42
0.30061413009175186
10
-20.110327206040772
20
131.08501709486274
0
LWPOLYLINE
5
151
100
AcDbEntity
8
0
100
AcDbPolyline
90
4
70
1
43
0.0
10
14.771066643710862
20
113.38807863816368
42
-0.3686412755124911
10
-20.110327206040775
20
78.506684788412045
10
-20.110327206040772
20
101.69114018146466
42
0.30061413009175275
10
-8.4133887493417134
20
113.38807863816368
0
CIRCLE
5
152
100
AcDbEntity
8
0
100
AcDbCircle
10
-67.110327206040765
20
72.388078638163762
30
0
40
1.6000000000000014
210
1.5385223689332337e-64
220
1.2325951644078309e-32
230
1
0
CIRCLE
5
153
100
AcDbEntity
8
0
100
AcDbCircle
10
-67.110327206040765
20
160.38807863816373
30
0
40
1.6000000000000014
210
1.5385223689332337e-64
220
1.2325951644078309e-32
230
1
0
CIRCLE
5
154
100
AcDbEntity
8
0
100
AcDbCircle
10
20.889672793959278
20
160.38807863816368
30
0
40
1.6000000000000014
210
1.5385223689332337e-64
220
1.2325951644078309e-32
230
1
0
CIRCLE
5
155
100
AcDbEntity
8
0
100
AcDbCircle
10
20.889672793959242
20
72.388078638163762
30
0
40
1.6000000000000014
210
1.5385223689332337e-64
220
1.2325951644078309e-32
230
1
0
CIRCLE
5
156
100
AcDbEntity
8
0
100
AcDbCircle
10
-58.860327206041021
20
152.13807863816334
30
0
40
3.9999999999999991
210
3.0770447378664687e-64
220
2.4651903288156619e-32
230
1
0
CIRCLE
5
157
100
AcDbEntity
8
0
100
AcDbCircle
10
12.639672793958932
20
152.1380786381639
30
0
40
4.0000000000000036
210
3.0770447378664687e-64
220
2.4651903288156619e-32
230
1
0
CIRCLE
5
158
100
AcDbEntity
8
0
100
AcDbCircle
10
-58.860327206040452
20
80.638078638163435
30
0
40
3.9999999999999991
210
3.0770447378664687e-64
220
2.4651903288156619e-32
230
1
0
CIRCLE
5
159
100
AcDbEntity
8
0
100
AcDbCircle
10
12.639672793959535
20
80.638078638164075
30
0
40
4.0000000000000036
210
3.0770447378664687e-64
220
2.4651903288156619e-32
230
1
0
ENDSEC
0
SECTION
2
OBJECTS
0
DICTIONARY
5
C
100
AcDbDictionary
3
ACAD_GROUP
350
D
3
ACAD_MLINESTYLE
350
17
0
DICTIONARY
5
D
100
AcDbDictionary
0
DICTIONARY
5
1A
330
C
100
AcDbDictionary
0
DICTIONARY
5
17
100
AcDbDictionary
0
ENDSEC
0
EOF
