<?xml version="1.0" encoding="UTF-8" standalone="no"?>
<!-- Created with Inkscape (http://www.inkscape.org/) -->

<svg
   xmlns:dc="http://purl.org/dc/elements/1.1/"
   xmlns:cc="http://creativecommons.org/ns#"
   xmlns:rdf="http://www.w3.org/1999/02/22-rdf-syntax-ns#"
   xmlns:svg="http://www.w3.org/2000/svg"
   xmlns="http://www.w3.org/2000/svg"
   xmlns:sodipodi="http://sodipodi.sourceforge.net/DTD/sodipodi-0.dtd"
   xmlns:inkscape="http://www.inkscape.org/namespaces/inkscape"
   width="250.26459mm"
   height="316.26459mm"
   viewBox="0 0 250.26459 316.26458"
   version="1.1"
   id="svg8"
   sodipodi:docname="TopPanel.svg"
   inkscape:version="0.92.4 (5da689c313, 2019-01-14)">
  <defs
     id="defs2">
    <marker
       style="overflow:visible"
       refY="0"
       refX="0"
       orient="auto"
       id="DistanceX">
      <path
         id="path99"
         style="stroke:#000000;stroke-width:0.5"
         d="M 3,-3 -3,3 M 0,-5 V 5"
         inkscape:connector-curvature="0" />
    </marker>
    <pattern
       y="0"
       x="0"
       width="8"
       patternUnits="userSpaceOnUse"
       id="Hatch"
       height="8">
      <path
         id="path102"
         stroke-width="0.25"
         stroke="#000000"
         linecap="square"
         d="M8 4 l-4,4" />
      <path
         id="path104"
         stroke-width="0.25"
         stroke="#000000"
         linecap="square"
         d="M6 2 l-4,4" />
      <path
         id="path106"
         stroke-width="0.25"
         stroke="#000000"
         linecap="square"
         d="M4 0 l-4,4" />
    </pattern>
    <symbol
       id="*MODEL_SPACE" />
    <symbol
       id="*PAPER_SPACE" />
    <marker
       style="overflow:visible"
       refY="0"
       refX="0"
       orient="auto"
       id="DistanceX-9">
      <path
         id="path171"
         style="stroke:#000000;stroke-width:0.5"
         d="M 3,-3 -3,3 M 0,-5 V 5"
         inkscape:connector-curvature="0" />
    </marker>
    <pattern
       y="0"
       x="0"
       width="8"
       patternUnits="userSpaceOnUse"
       id="Hatch-1"
       height="8">
      <path
         id="path174"
         stroke-width="0.25"
         stroke="#000000"
         linecap="square"
         d="M8 4 l-4,4" />
      <path
         id="path176"
         stroke-width="0.25"
         stroke="#000000"
         linecap="square"
         d="M6 2 l-4,4" />
      <path
         id="path178"
         stroke-width="0.25"
         stroke="#000000"
         linecap="square"
         d="M4 0 l-4,4" />
    </pattern>
    <symbol
       id="*MODEL_SPACE-0" />
    <symbol
       id="*PAPER_SPACE-3" />
    <marker
       style="overflow:visible"
       refY="0"
       refX="0"
       orient="auto"
       id="DistanceX-7">
      <path
         id="path231"
         style="stroke:#000000;stroke-width:0.5"
         d="M 3,-3 -3,3 M 0,-5 V 5"
         inkscape:connector-curvature="0" />
    </marker>
    <pattern
       y="0"
       x="0"
       width="8"
       patternUnits="userSpaceOnUse"
       id="Hatch-14"
       height="8">
      <path
         id="path234"
         stroke-width="0.25"
         stroke="#000000"
         linecap="square"
         d="M8 4 l-4,4" />
      <path
         id="path236"
         stroke-width="0.25"
         stroke="#000000"
         linecap="square"
         d="M6 2 l-4,4" />
      <path
         id="path238"
         stroke-width="0.25"
         stroke="#000000"
         linecap="square"
         d="M4 0 l-4,4" />
    </pattern>
    <symbol
       id="*MODEL_SPACE-6" />
    <symbol
       id="*PAPER_SPACE-8" />
    <marker
       style="overflow:visible"
       refY="0"
       refX="0"
       orient="auto"
       id="DistanceX-4">
      <path
         id="path279"
         style="stroke:#000000;stroke-width:0.5"
         d="M 3,-3 -3,3 M 0,-5 V 5"
         inkscape:connector-curvature="0" />
    </marker>
    <pattern
       y="0"
       x="0"
       width="8"
       patternUnits="userSpaceOnUse"
       id="Hatch-6"
       height="8">
      <path
         id="path282"
         stroke-width="0.25"
         stroke="#000000"
         linecap="square"
         d="M8 4 l-4,4" />
      <path
         id="path284"
         stroke-width="0.25"
         stroke="#000000"
         linecap="square"
         d="M6 2 l-4,4" />
      <path
         id="path286"
         stroke-width="0.25"
         stroke="#000000"
         linecap="square"
         d="M4 0 l-4,4" />
    </pattern>
    <symbol
       id="*MODEL_SPACE-7" />
    <symbol
       id="*PAPER_SPACE-7" />
    <marker
       style="overflow:visible"
       refY="0"
       refX="0"
       orient="auto"
       id="DistanceX-0">
      <path
         id="path327"
         style="stroke:#000000;stroke-width:0.5"
         d="M 3,-3 -3,3 M 0,-5 V 5"
         inkscape:connector-curvature="0" />
    </marker>
    <pattern
       y="0"
       x="0"
       width="8"
       patternUnits="userSpaceOnUse"
       id="Hatch-8"
       height="8">
      <path
         id="path330"
         stroke-width="0.25"
         stroke="#000000"
         linecap="square"
         d="M8 4 l-4,4" />
      <path
         id="path332"
         stroke-width="0.25"
         stroke="#000000"
         linecap="square"
         d="M6 2 l-4,4" />
      <path
         id="path334"
         stroke-width="0.25"
         stroke="#000000"
         linecap="square"
         d="M4 0 l-4,4" />
    </pattern>
    <symbol
       id="*MODEL_SPACE-3" />
    <symbol
       id="*PAPER_SPACE-6" />
  </defs>
  <sodipodi:namedview
     id="base"
     pagecolor="#ffffff"
     bordercolor="#666666"
     borderopacity="1.0"
     inkscape:pageopacity="0.0"
     inkscape:pageshadow="2"
     inkscape:zoom="0.35"
     inkscape:cx="-423.17545"
     inkscape:cy="1117.6681"
     inkscape:document-units="mm"
     inkscape:current-layer="layer1"
     showgrid="false"
     inkscape:window-width="1920"
     inkscape:window-height="1017"
     inkscape:window-x="-8"
     inkscape:window-y="-8"
     inkscape:window-maximized="1"
     fit-margin-top="0"
     fit-margin-left="0"
     fit-margin-right="0"
     fit-margin-bottom="0" />
  <metadata
     id="metadata5">
    <rdf:RDF>
      <cc:Work
         rdf:about="">
        <dc:format>image/svg+xml</dc:format>
        <dc:type
           rdf:resource="http://purl.org/dc/dcmitype/StillImage" />
        <dc:title></dc:title>
      </cc:Work>
    </rdf:RDF>
  </metadata>
  <g
     inkscape:label="Layer 1"
     inkscape:groupmode="layer"
     id="layer1"
     transform="translate(-363.45759,-125.68259)">
    <g
       id="g361"
       inkscape:label="0"
       transform="matrix(0.26458333,0,0,0.26458333,758.18988,126.61488)">
      <path
         id="path341"
         style="fill:none;stroke:#000000"
         d="m -755.90551,1081.7008 a 6.047245,6.047245 0 1 0 -12.09449,0 6.047245,6.047245 0 1 0 12.09449,0 z"
         inkscape:connector-curvature="0" />
      <path
         id="path343"
         style="fill:none;stroke:#000000"
         d="m -1232.126,219.9685 a 6.04725,6.04725 0 1 0 -12.0945,0 6.04725,6.04725 0 1 0 12.0945,0 z"
         inkscape:connector-curvature="0" />
      <path
         id="path345"
         style="fill:none;stroke:#000000"
         d="m -1269.9213,1081.7008 a 6.047244,6.047244 0 1 0 -12.0944,0 6.047244,6.047244 0 1 0 12.0944,0 z"
         inkscape:connector-curvature="0" />
      <path
         id="path347"
         style="fill:none;stroke:#000000"
         d="m -793.70079,1081.7008 a 6.047245,6.047245 0 1 0 -12.09449,0 6.047245,6.047245 0 1 0 12.09449,0 z"
         inkscape:connector-curvature="0" />
      <path
         id="path349"
         style="fill:none;stroke:#000000"
         d="m -755.90551,219.9685 a 6.047245,6.047245 0 1 0 -12.09449,0 6.047245,6.047245 0 1 0 12.09449,0 z"
         inkscape:connector-curvature="0" />
      <path
         id="path351"
         style="fill:none;stroke:#000000"
         d="m -793.70079,219.9685 a 6.047245,6.047245 0 1 0 -12.09449,0 6.047245,6.047245 0 1 0 12.09449,0 z"
         inkscape:connector-curvature="0" />
      <path
         id="path353"
         style="fill:none;stroke:#000000"
         d="m -1230.6142,197.29134 h 423.30711 a 7.559055,7.559055 0 0 0 7.55906,-7.55906 v -60.47244 a 7.559055,7.559055 0 0 0 -7.55906,-7.55905 h -423.30711 a 7.559055,7.559055 0 0 0 -7.559,7.55905 v 60.47244 a 7.559055,7.559055 0 0 0 7.559,7.55906 z"
         inkscape:connector-curvature="0" />
      <path
         id="path355"
         style="fill:none;stroke:#000000"
         d="m -1232.126,1081.7008 a 6.04725,6.04725 0 1 0 -12.0945,0 6.04725,6.04725 0 1 0 12.0945,0 z"
         inkscape:connector-curvature="0" />
      <path
         id="path357"
         style="fill:none;stroke:#000000"
         d="m -1269.9213,219.9685 a 6.047244,6.047244 0 1 0 -12.0944,0 6.047244,6.047244 0 1 0 12.0944,0 z"
         inkscape:connector-curvature="0" />
      <path
         id="path359"
         style="fill:none;stroke:#000000"
         d="m -807.30709,1104.378 h -423.30711 a 7.559055,7.559055 0 0 0 -7.559,7.559 v 79.3701 h -253.2284 V -3.023622 h 944.88192 V 1191.3071 h -253.22835 v -79.3701 a 7.559055,7.559055 0 0 0 -7.55906,-7.559 z"
         inkscape:connector-curvature="0" />
    </g>
  </g>
</svg>
